<?xml version="1.0" encoding="UTF-8"?><svg id="Layer_1" xmlns="http://www.w3.org/2000/svg" width="1050" height="1080" xmlns:xlink="http://www.w3.org/1999/xlink" viewBox="0 0 1050 1080"><defs><style>.cls-1{filter:url(#drop-shadow-3);}.cls-1,.cls-2{fill:#fff;}.cls-2{filter:url(#drop-shadow-2);}.cls-3{clip-path:url(#clippath);}.cls-4{fill:none;}.cls-5{fill:url(#linear-gradient-2);filter:url(#drop-shadow-1);}.cls-6{fill:url(#linear-gradient);}</style><clipPath id="clippath"><path class="cls-4" d="M1050,621.32c0-424.54-344.16-768.69-768.69-768.69S-487.38,196.79-487.38,621.32-143.23,1390.01,281.31,1390.01c169.01,0,325.25-54.59,452.13-147.03l-.27-.09c50.58-36.82,96.48-79.67,136.67-127.48,.1,0,.21-.02,.31-.03,112.22-133.61,179.85-305.92,179.85-494.06Z"/></clipPath><linearGradient id="linear-gradient" x1="-487.33" y1="621.73" x2="1050.06" y2="621.73" gradientTransform="matrix(1, 0, 0, 1, 0, 0)" gradientUnits="userSpaceOnUse"><stop offset="0" stop-color="#0265e7"/><stop offset="1" stop-color="#00a3fd"/></linearGradient><linearGradient id="linear-gradient-2" x1="84.96" y1="-31.08" x2="84.96" y2="1421.27" xlink:href="#linear-gradient"/><filter id="drop-shadow-1" filterUnits="userSpaceOnUse"><feOffset dx="7" dy="7"/><feGaussianBlur result="blur" stdDeviation="10"/><feFlood flood-color="#000" flood-opacity=".35"/><feComposite in2="blur" operator="in"/><feComposite in="SourceGraphic"/></filter><filter id="drop-shadow-2" filterUnits="userSpaceOnUse"><feOffset dx="-7" dy="7"/><feGaussianBlur result="blur-2" stdDeviation="10"/><feFlood flood-color="#000" flood-opacity=".35"/><feComposite in2="blur-2" operator="in"/><feComposite in="SourceGraphic"/></filter><filter id="drop-shadow-3" filterUnits="userSpaceOnUse"><feOffset dx="7" dy="7"/><feGaussianBlur result="blur-3" stdDeviation="10"/><feFlood flood-color="#000" flood-opacity=".35"/><feComposite in2="blur-3" operator="in"/><feComposite in="SourceGraphic"/></filter></defs><g class="cls-3"><g><path class="cls-6" d="M1050.06,621.73c0-424.54-344.16-768.69-768.69-768.69S-487.33,197.19-487.33,621.73-143.17,1390.42,281.37,1390.42c169.01,0,325.25-54.59,452.13-147.03l-.27-.09c50.58-36.82,96.48-79.67,136.67-127.48,.1,0,.21-.02,.31-.03,112.22-133.61,179.85-305.92,179.85-494.06Z"/><path class="cls-5" d="M676.69,1270.6c-210.38-68.64-221.91-66.07-306.09-102.81-157.2-68.6-227.16-125.6-251.18-146.04-62.69-53.33-101.79-103.66-116.83-123.84-4.18-5.61-8.14-11.16-11.93-16.65h-.05c-49.7-69.63-89.64-142.98-110.87-187.46,0,0-94.25-197.41-119.16-467.31-4.46-48.36-7.6-82.38-7.01-130.85,1.06-86.66,12.86-121.34,2.34-126.17-23.03-10.58-129.4,132.48-191.6,282.72-35.44,85.62-126.72,324.37-56.08,574.79,6.27,22.23,12.5,39.9,18.75,54.27h-25.41c97.36,312.85,389.2,540,734.1,540,169.01,0,325.25-54.59,452.13-147.03-3.7-1.21-7.41-2.42-11.11-3.63Z"/></g><path class="cls-2" d="M785.6,41.27c161.81,140.92,264.08,348.46,264.08,579.88,0,188.14-67.63,360.45-179.85,494.06-.1,0-.21,.02-.31,.03-1.7,2.02-3.43,4.03-5.15,6.03h974.44V41.27H785.6Z"/><path class="cls-1" d="M817.81,1292.27c-3.7-1.21-98.78-43.89-102.48-45.09-210.38-68.64-221.91-66.07-306.09-102.81-157.2-68.6-227.16-125.6-251.18-146.04-62.69-53.33-101.79-103.66-116.83-123.84-13.8-18.53-25.4-36.43-35.44-53.58-39.44-54.58-62.69-121.62-62.69-194.1,0-183.24,148.55-331.79,331.79-331.79s331.79,148.55,331.79,331.79-148.55,331.79-331.79,331.79c-24.28,0-47.94-2.63-70.73-7.58l.63,.57c20.54,18.93,45.34,39.07,74.77,58.41,57.79,37.99,113.25,59.66,156.55,72.43,0,0,82.44,27.58,172.91,39.72,79.61,10.68,169.9,8.5,254.14,1.04l-45.34,169.06Z"/></g><rect class="cls-4" width="1920" height="1080"/></svg>