<?xml version="1.0" encoding="UTF-8"?><svg id="Layer_1" xmlns="http://www.w3.org/2000/svg" xmlns:xlink="http://www.w3.org/1999/xlink" viewBox="0 0 1848 2960"><defs><style>.cls-1{stroke:#939598;stroke-miterlimit:10;}.cls-1,.cls-2{fill:none;}.cls-3{clip-path:url(#clippath);}</style><clipPath id="clippath"><rect class="cls-2" width="1848" height="2960"/></clipPath></defs><g class="cls-3"><g><g><path class="cls-1" d="M402.15,3012.17c-40.82-148.97-70.6-311.31-13.54-454.85,74.77-188.06,282.21-293.37,483.14-317.5,200.93-24.13,403.25,15.75,605.04,31.1,201.79,15.34,417.92,2.06,584.25-113.23,230.67-159.9,306.38-471.51,514.52-659.81,173.56-157.01,435.54-208.78,655.78-129.58"/><path class="cls-1" d="M554.99,3012.17c-38.61-140.92-66.79-294.5-12.8-430.27,70.73-177.9,266.96-277.52,457.04-300.35,190.08-22.83,381.46,14.9,572.36,29.42,190.89,14.51,395.35,1.95,552.68-107.12,218.21-151.27,289.83-446.04,486.73-624.16,164.18-148.53,412.02-197.5,620.35-122.58"/><path class="cls-1" d="M707.82,3012.17c-36.41-132.88-62.97-277.68-12.07-405.7,66.69-167.74,251.72-261.67,430.94-283.2,179.22-21.52,359.68,14.05,539.67,27.74,179.99,13.68,372.77,1.84,521.12-101,205.75-142.63,273.28-420.56,458.93-588.52,154.81-140.05,388.49-186.22,584.93-115.58"/><path class="cls-1" d="M860.66,3012.17c-34.2-124.83-59.16-260.86-11.34-381.13,62.65-157.58,236.47-245.82,404.84-266.05,168.37-20.22,337.9,13.2,506.99,26.06,169.09,12.86,350.19,1.73,489.56-94.88,193.29-133.99,256.73-395.09,431.14-552.88,145.43-131.57,364.96-174.94,549.5-108.58"/><path class="cls-1" d="M1013.49,3012.17c-32-116.78-55.34-244.04-10.61-356.56,58.61-147.42,221.23-229.98,378.74-248.89,157.51-18.92,316.11,12.35,474.3,24.38,158.19,12.03,327.62,1.62,458-88.76,180.83-125.35,240.18-369.62,403.34-517.23,136.05-123.08,341.43-163.67,514.07-101.58"/></g><g><path class="cls-1" d="M-688.84,1625.99c-40.82-148.97-70.6-311.31-13.54-454.85,74.77-188.06,282.21-293.37,483.14-317.5,200.93-24.13,403.25,15.75,605.04,31.1,201.79,15.34,417.92,2.06,584.25-113.23,230.67-159.9,306.38-471.51,514.52-659.81,173.56-157.01,435.54-208.78,655.78-129.58"/><path class="cls-1" d="M-536.01,1625.99c-38.61-140.92-66.79-294.5-12.8-430.27,70.73-177.9,266.96-277.52,457.04-300.35,190.08-22.83,381.46,14.9,572.36,29.42,190.89,14.51,395.35,1.95,552.68-107.12,218.21-151.27,289.83-446.04,486.73-624.16C1684.18,44.98,1932.01-4,2140.35,70.92"/><path class="cls-1" d="M-383.17,1625.99c-36.41-132.88-62.97-277.68-12.07-405.7,66.69-167.74,251.72-261.67,430.94-283.2,179.22-21.52,359.68,14.05,539.67,27.74,179.99,13.68,372.77,1.84,521.12-101,205.75-142.63,273.28-420.56,458.93-588.52,154.81-140.05,388.49-186.22,584.93-115.58"/><path class="cls-1" d="M-230.34,1625.99c-34.2-124.83-59.16-260.86-11.34-381.13,62.65-157.58,236.47-245.82,404.84-266.05,168.37-20.22,337.9,13.2,506.99,26.06,169.09,12.86,350.19,1.73,489.56-94.88,193.29-133.99,256.73-395.09,431.14-552.88,145.43-131.57,364.96-174.94,549.5-108.58"/><path class="cls-1" d="M-77.5,1625.99c-32-116.78-55.34-244.04-10.61-356.56,58.61-147.42,221.23-229.98,378.74-248.89,157.51-18.92,316.11,12.35,474.3,24.38,158.19,12.03,327.62,1.62,458-88.76,180.83-125.35,240.18-369.62,403.34-517.23,136.05-123.08,341.43-163.67,514.07-101.58"/></g><g><path class="cls-1" d="M-63.78,977.07c-29.8,103.76,23.26,215.94,100.2,291.67,76.94,75.73,175.41,124.77,265.91,183.64,90.5,58.87,177.99,133.98,212.22,236.36,60.92,182.16-63.45,367.57-122.75,550.27-89.72,276.43-19.8,598.68,176.41,813.07"/><path class="cls-1" d="M-134.2,998.49c-29.8,103.76,23.26,215.94,100.2,291.67,76.94,75.73,175.41,124.77,265.91,183.64,90.5,58.87,177.99,133.98,212.22,236.36,60.92,182.16-63.45,367.57-122.75,550.27-89.72,276.43-19.8,598.68,176.41,813.07"/><path class="cls-1" d="M-204.61,1019.91c-29.8,103.76,23.26,215.94,100.2,291.67,76.94,75.73,175.41,124.77,265.91,183.64,90.5,58.87,177.99,133.98,212.22,236.36,60.92,182.16-63.45,367.57-122.75,550.27-89.72,276.43-19.8,598.68,176.41,813.07"/><path class="cls-1" d="M-275.02,1041.33c-29.8,103.76,23.26,215.94,100.2,291.67,76.94,75.73,175.41,124.77,265.91,183.64,90.5,58.87,177.98,133.98,212.22,236.36,60.92,182.16-63.45,367.57-122.75,550.27-89.72,276.43-19.8,598.68,176.41,813.07"/></g></g></g></svg>