<?xml version="1.0" encoding="UTF-8"?><svg id="Layer_1" xmlns="http://www.w3.org/2000/svg" width="173.32" height="87.32" xmlns:xlink="http://www.w3.org/1999/xlink" viewBox="0 0 173.32 87.32"><defs><style>.cls-1{fill:#f6f8fb;}.cls-2{fill:url(#linear-gradient);}.cls-3{fill:#404040;}</style><linearGradient id="linear-gradient" x1="21.85" y1="43.75" x2="67.29" y2="43.75" gradientTransform="matrix(1, 0, 0, 1, 0, 0)" gradientUnits="userSpaceOnUse"><stop offset="0" stop-color="#0265e7"/><stop offset="1" stop-color="#00a3fd"/></linearGradient></defs><g><circle class="cls-1" cx="44.57" cy="43.75" r="42.7"/><path class="cls-2" d="M67.29,36.61c-.02,1.28-.05,2.55-.08,3.83,0,.05,0,.09,0,.14-.01,1.2-.03,2.4-.04,3.61-.01,.83-.03,1.67-.04,2.5,0,.04,0,.07-.02,.14h-8.36c-3.57,0-7.13,0-10.7,0h-9.92s-3.63,.14-5.15,1.88c-.37,.44-.69,.92-.97,1.47-.77,1.51-1.02,3.13-.78,4.84,.21,1.5,.79,2.81,1.73,3.92,2.04,2.42,5.31,3.09,8.02,1.65,.23-.12,.46-.28,.69-.41,.08-.04,.16-.06,.25-.08,.04,0,.08,0,.12,0,3.91,0,7.82,0,11.73,0h.26c-.02,.06-.02,.11-.04,.16-.52,1.44-1.21,2.77-2.06,4.01-.56,.83-1.19,1.59-1.88,2.3-.92,.94-1.93,1.75-3.03,2.44-1.43,.89-2.95,1.52-4.55,1.91-.47,.11-.96,.17-1.44,.26-.42,.07-.84,.14-1.26,.2-.36,.05-.72,.08-1.09,.09-.5,.02-1,.02-1.5,0-.4-.02-.79-.07-1.19-.11-.62-.06-1.23-.2-1.83-.36-2.15-.57-4.11-1.58-5.88-3.03-.76-.62-1.47-1.31-2.11-2.07-1.1-1.3-2-2.74-2.71-4.33-.59-1.32-1.01-2.7-1.28-4.14-.11-.58-.16-1.18-.24-1.77-.12-.93-.09-1.86-.06-2.79,.03-.98,.17-1.95,.37-2.91,.49-2.32,1.37-4.46,2.65-6.39,.67-1.01,1.43-1.94,2.28-2.77,2.1-2.05,4.51-3.41,7.26-4.08,.62-.15,1.25-.25,1.88-.33,.6-.07,1.2-.08,1.8-.07h4.42v-2.5c0-.1,0-.2,0-.31v-.1h0c.04-3.17,.89-6.16,2.62-8.97,2.18-3.53,5.26-5.99,9.18-7.37,3.3-1.16,6.66-1.27,10.08-.46v11.31c-.09,.02-.14-.05-.19-.08-.89-.57-1.85-.93-2.9-1.05-2.14-.24-4.02,.35-5.61,1.81-2.11,1.95-2.79,4.99-1.74,7.66,.11,.27,.07,.24,.36,.24,4.21-.01,8.42-.02,12.63-.04,.1,0,.21,0,.32,0,0,.09,.02,.14,.02,.2Zm-25.35,11.69v10.52h12.14v-10.52h-12.14Z"/></g><g><path class="cls-3" d="M112.24,30.49h1.31c2.49,0,5.08,1.01,7.78,3.02,1.19,1.01,1.79,1.89,1.79,2.66v.6c0,1.43-.89,2.38-2.66,2.86l-.44,.08c-.93,0-1.94-.54-3.05-1.63-1.22-.87-2.47-1.31-3.77-1.31h-.63c-2.38,0-4.31,1.22-5.79,3.65-.53,.98-.79,2.01-.79,3.09v.32c0,3.09,1.71,5.29,5.12,6.59l1.47,.16h.63c1.77,0,3.52-.86,5.24-2.58,.74-.24,1.27-.36,1.59-.36,1.53,0,2.57,.87,3.09,2.62v.91c0,1.43-1.76,3.02-5.28,4.76-1.77,.61-3.2,.91-4.28,.91h-1.31c-3.39,0-6.56-1.57-9.52-4.72-2.01-2.64-3.02-5.25-3.02-7.82v-1.27c0-3.41,1.57-6.59,4.72-9.52,2.67-2.01,5.28-3.02,7.82-3.02Z"/><path class="cls-3" d="M135.76,30.49h.87c1.16,0,2.06,.82,2.7,2.46v1.03c0,.98-.66,1.82-1.98,2.54-1.59,.21-2.5,.45-2.74,.71-.93,.63-1.39,1.36-1.39,2.18l-.08,5.04h3.49c1.16,0,2.06,.82,2.7,2.46v.99c0,1.16-.82,2.08-2.46,2.74l-1.63,.08h-2.1v3.41c0,1.16-.82,2.06-2.46,2.7h-1.03c-1.16,0-2.06-.82-2.7-2.46v-15.04c0-2.78,1.39-5.24,4.17-7.38,1.67-.98,3.21-1.47,4.64-1.47Z"/><path class="cls-3" d="M146.71,30.49c1.16,0,2.06,.82,2.7,2.46v1.03c0,1.16-.82,2.06-2.46,2.7h-1.03c-1.16,0-2.06-.82-2.7-2.46v-1.03c0-1.16,.82-2.06,2.46-2.7h1.03Zm0,7.74c1.16,0,2.06,.83,2.7,2.5v13.41c0,1.16-.82,2.06-2.46,2.7h-1.03c-1.16,0-2.06-.82-2.7-2.46v-13.41c0-1.16,.82-2.08,2.46-2.74h1.03Z"/><path class="cls-3" d="M162.11,38.22h.95c2.75,0,5.2,1.4,7.34,4.21,1,1.67,1.51,3.21,1.51,4.64v7.06c0,1.16-.83,2.06-2.5,2.7h-.99c-1.16,0-2.08-.82-2.74-2.46l-.08-1.67v-5.55c0-1.16-.79-2.05-2.38-2.66h-1.03c-1.14,0-2.01,.81-2.62,2.42l-.08,1.63v5.59c0,1.16-.82,2.06-2.46,2.7h-1.03c-1.16,0-2.06-.82-2.7-2.46v-7.3c0-2.78,1.39-5.24,4.17-7.38,1.67-.98,3.21-1.47,4.64-1.47Z"/></g></svg>