<svg id="Layer_1" data-name="Layer 1" xmlns="http://www.w3.org/2000/svg" viewBox="0 0 1000 1000"><title>Logo_New</title><path d="M449.57,539.44h-33a55,55,0,1,1,0-109.93h33v14.13H415.66a40.23,40.23,0,1,0,0,80.45h33.91Zm0,0"/><path d="M565,538.5a53.38,53.38,0,0,1-53.32-53.33v-3.69a53.32,53.32,0,0,1,106.64,0v3.69A53.38,53.38,0,0,1,565,538.5Zm-.39-96.77a39.45,39.45,0,0,0-39.42,39.42v3.57a39.42,39.42,0,1,0,78.83,0v-3.57a39.45,39.45,0,0,0-39.41-39.42Zm0,0" style="fill:#b20768"/><polygon points="504.09 525.27 478.87 525.27 478.87 428.39 464.8 428.39 464.8 539.34 478.87 539.34 478.87 539.34 504.09 539.34 504.09 525.27"/><rect x="858.43" y="427.92" width="14.08" height="111.42" style="fill:#b20768"/><path d="M739.8,429v56.6a53.09,53.09,0,1,1-106.18,0V429h14.45v56.85a38.86,38.86,0,1,0,77.71,0V429Zm0,0"/><path d="M887.82,538.88v-56.6a53.09,53.09,0,0,1,106.18,0v56.6H980V482a38.86,38.86,0,0,0-77.71,0v56.85Zm0,0"/><path d="M754.93,428.16h32.71a55.27,55.27,0,1,1,0,110.53H754.93V523.26h33.68a40.45,40.45,0,1,0,0-80.9H754.93Zm0,0"/><circle cx="134.2" cy="341.85" r="52.49" style="fill:#b10067"/><circle cx="173.94" cy="466.39" r="52.49" style="fill:#0099d5"/><circle cx="229.09" cy="523.33" r="52.49" style="fill:#00a54f"/><circle cx="376.18" cy="338.88" r="53.28" style="fill:#fe3700"/><circle cx="375.39" cy="627.51" r="53.28" style="fill:#000064"/><circle cx="122.34" cy="604.88" r="32.03" style="fill:#5b1c7c"/><circle cx="214.86" cy="682.37" r="32.03" style="fill:#6fa200"/><circle cx="259.94" cy="422.21" r="32.03" style="fill:#0c2179"/><circle cx="253.41" cy="327.31" r="26.79" style="fill:#00a4a6"/><circle cx="321.62" cy="460.76" r="26.79" style="fill:#feb200"/><circle cx="32.79" cy="438.22" r="26.79" style="fill:#df7300"/><circle cx="89.72" cy="518.29" r="21.35" style="fill:#f20051"/></svg>