<?xml version="1.0" encoding="UTF-8"?><svg id="Layer_1" xmlns="http://www.w3.org/2000/svg" viewBox="0 0 244 247.08"><defs><style>.cls-1{fill:#0099d5;}.cls-2{fill:#0c2179;}.cls-3{fill:#df7300;}.cls-4{fill:#00a4a6;}.cls-5{fill:#5b1c7c;}.cls-6{fill:#feb200;}.cls-7{fill:#b10067;}.cls-8{fill:#000064;}.cls-9{fill:#00a54f;}.cls-10{fill:#6fa200;}.cls-11{fill:#fe3700;}.cls-12{fill:#f20051;}</style></defs><circle class="cls-7" cx="73.87" cy="32.41" r="30.24"/><circle class="cls-11" cx="213.3" cy="30.7" r="30.7"/><circle class="cls-8" cx="212.85" cy="197.01" r="30.7"/><circle class="cls-5" cx="67.04" cy="183.97" r="18.45"/><circle class="cls-10" cx="120.35" cy="228.62" r="18.45"/><circle class="cls-2" cx="146.32" cy="78.71" r="18.45"/><circle class="cls-4" cx="142.56" cy="24.04" r="15.44"/><circle class="cls-6" cx="181.86" cy="100.93" r="15.44"/><circle class="cls-3" cx="15.44" cy="87.94" r="15.44"/><circle class="cls-12" cx="48.24" cy="134.07" r="12.3"/><path class="cls-1" d="M105.6,113.84c5.55-5.55,13.65-9.07,21.53-9.42,0-.08,0-.17,0-.25,0-16.7-13.54-30.24-30.24-30.24s-30.24,13.54-30.24,30.24,13.16,29.84,29.53,30.23c.42-7.45,4.34-15.48,9.42-20.56Z"/><circle class="cls-9" cx="128.8" cy="136.98" r="30.24"/></svg>