<?xml version="1.0" encoding="UTF-8"?><svg id="Layer_1" xmlns="http://www.w3.org/2000/svg" xmlns:xlink="http://www.w3.org/1999/xlink" viewBox="0 0 15.44 15.44"><defs><style>.cls-1{fill:#fff;}.cls-2{fill:url(#Degradado_sin_nombre_3);}</style><linearGradient id="Degradado_sin_nombre_3" x1="13.17" y1="2.26" x2="2.26" y2="13.17" gradientUnits="userSpaceOnUse"><stop offset="0" stop-color="#ffe185"/><stop offset=".21" stop-color="#ffbb36"/><stop offset=".38" stop-color="#ff5176"/><stop offset=".52" stop-color="#f63395"/><stop offset=".74" stop-color="#a436d2"/><stop offset="1" stop-color="#5f4eed"/></linearGradient></defs><circle class="cls-2" cx="7.72" cy="7.72" r="7.72"/><g><path class="cls-1" d="M10.11,4.8c-.29,0-.53,.24-.53,.53s.24,.53,.53,.53,.53-.24,.53-.53-.24-.53-.53-.53Z"/><path class="cls-1" d="M7.75,5.48c-1.23,0-2.23,1-2.23,2.23s1,2.23,2.23,2.23,2.23-1,2.23-2.23-1-2.23-2.23-2.23Zm0,3.66c-.79,0-1.43-.64-1.43-1.43s.64-1.43,1.43-1.43,1.43,.64,1.43,1.43-.64,1.43-1.43,1.43Z"/><path class="cls-1" d="M9.52,12.23h-3.61c-1.5,0-2.72-1.22-2.72-2.72v-3.61c0-1.5,1.22-2.72,2.72-2.72h3.61c1.5,0,2.72,1.22,2.72,2.72v3.61c0,1.5-1.22,2.72-2.72,2.72ZM5.91,4.03c-1.03,0-1.87,.84-1.87,1.87v3.61c0,1.03,.84,1.87,1.87,1.87h3.61c1.03,0,1.87-.84,1.87-1.87v-3.61c0-1.03-.84-1.87-1.87-1.87h-3.61Z"/></g></svg>