<?xml version="1.0" encoding="utf-8"?>
<!-- Generator: Adobe Illustrator 26.3.1, SVG Export Plug-In . SVG Version: 6.00 Build 0)  -->
<svg version="1.1" id="Layer_1" xmlns="http://www.w3.org/2000/svg" xmlns:xlink="http://www.w3.org/1999/xlink" x="0px" y="0px"
	 viewBox="0 0 100 66" style="enable-background:new 0 0 100 66;" xml:space="preserve">
<style type="text/css">
	.st0{fill:url(#SVGID_1_);}
	.st1{fill:url(#SVGID_00000093172845178800613360000017529346455045230721_);}
	.st2{fill:url(#SVGID_00000077285137959359549210000012869406776312048553_);}
	.st3{fill:url(#SVGID_00000172439087883631396860000015661701475550482332_);}
	.st4{fill:url(#SVGID_00000032622293127767918140000004343279707860488885_);}
	.st5{fill:url(#SVGID_00000178191889858798307190000006937339146358386352_);}
	.st6{fill:url(#SVGID_00000137839593211282270750000016252969901878201781_);}
	.st7{fill:url(#SVGID_00000069392843791539117390000001161643668991241148_);}
	.st8{opacity:0.3;fill:url(#SVGID_00000101073960208429485520000009431007894600072838_);}
	.st9{fill:#FFFFFF;}
	.st10{opacity:0.4;}
</style>
<g>
	
		<radialGradient id="SVGID_1_" cx="142.6013" cy="9754.8643" r="816.9689" gradientTransform="matrix(6.120000e-02 0 0 6.600000e-03 41.2728 -4.1037)" gradientUnits="userSpaceOnUse">
		<stop  offset="0" style="stop-color:#000000"/>
		<stop  offset="4.710501e-02" style="stop-color:#2F2F2F"/>
		<stop  offset="9.823465e-02" style="stop-color:#5A5A5A"/>
		<stop  offset="0.155" style="stop-color:#828282"/>
		<stop  offset="0.2161" style="stop-color:#A4A4A4"/>
		<stop  offset="0.2828" style="stop-color:#C0C0C0"/>
		<stop  offset="0.357" style="stop-color:#D7D7D7"/>
		<stop  offset="0.442" style="stop-color:#E9E9E9"/>
		<stop  offset="0.5442" style="stop-color:#F6F6F6"/>
		<stop  offset="0.6812" style="stop-color:#FDFDFD"/>
		<stop  offset="1" style="stop-color:#FFFFFF"/>
	</radialGradient>
	<path class="st0" d="M100,60.3c0,3-22.4,5.4-50,5.4c-27.6,0-50-2.4-50-5.4c0-3,22.4-5.4,50-5.4C77.6,54.9,100,57.3,100,60.3z"/>
	<g>
		
			<radialGradient id="SVGID_00000010286880073573760950000000114068545555609279_" cx="193.4697" cy="137.7904" r="1604.4487" gradientTransform="matrix(5.410000e-02 0 0 5.410000e-02 40.4544 -7.1235)" gradientUnits="userSpaceOnUse">
			<stop  offset="0" style="stop-color:#7A7A7A"/>
			<stop  offset="6.569088e-02" style="stop-color:#6B6B6B"/>
			<stop  offset="0.2614" style="stop-color:#454545"/>
			<stop  offset="0.4556" style="stop-color:#272727"/>
			<stop  offset="0.6456" style="stop-color:#111111"/>
			<stop  offset="0.8294" style="stop-color:#040404"/>
			<stop  offset="1" style="stop-color:#000000"/>
		</radialGradient>
		<path style="fill:url(#SVGID_00000010286880073573760950000000114068545555609279_);" d="M81.5,30.3c0,16.5-13.4,29.9-29.9,29.9
			c-16.5,0-29.9-13.4-29.9-29.9C21.6,13.7,35,0.3,51.5,0.3C68.1,0.3,81.5,13.7,81.5,30.3z"/>
		
			<radialGradient id="SVGID_00000093137620898151688540000002005302972619772845_" cx="-2532.1006" cy="-775.2271" r="1606.7572" gradientTransform="matrix(-3.820000e-02 3.820000e-02 -3.820000e-02 -3.820000e-02 19.6202 6.2505)" gradientUnits="userSpaceOnUse">
			<stop  offset="0" style="stop-color:#7A7A7A"/>
			<stop  offset="6.569088e-02" style="stop-color:#6B6B6B"/>
			<stop  offset="0.2614" style="stop-color:#454545"/>
			<stop  offset="0.4556" style="stop-color:#272727"/>
			<stop  offset="0.6456" style="stop-color:#111111"/>
			<stop  offset="0.8294" style="stop-color:#040404"/>
			<stop  offset="1" style="stop-color:#000000"/>
		</radialGradient>
		<path style="fill:url(#SVGID_00000093137620898151688540000002005302972619772845_);" d="M30.4,51.4c-11.7-11.7-11.7-30.6,0-42.3
			C42.1-2.6,61-2.6,72.7,9.1c11.7,11.7,11.7,30.6,0,42.3C61,63.1,42.1,63.1,30.4,51.4z"/>
		
			<radialGradient id="SVGID_00000108996577163290716010000001493057017611137967_" cx="-855.1682" cy="-488.2648" r="2977.8809" gradientTransform="matrix(-3.820000e-02 3.820000e-02 -3.820000e-02 -3.820000e-02 19.6202 6.2505)" gradientUnits="userSpaceOnUse">
			<stop  offset="0" style="stop-color:#7A7A7A"/>
			<stop  offset="6.569088e-02" style="stop-color:#6B6B6B"/>
			<stop  offset="0.2614" style="stop-color:#454545"/>
			<stop  offset="0.4556" style="stop-color:#272727"/>
			<stop  offset="0.6456" style="stop-color:#111111"/>
			<stop  offset="0.8294" style="stop-color:#040404"/>
			<stop  offset="1" style="stop-color:#000000"/>
		</radialGradient>
		<path style="fill:url(#SVGID_00000108996577163290716010000001493057017611137967_);" d="M31.1,50.7c-11.3-11.3-11.3-29.6,0-40.9
			c11.3-11.3,29.6-11.3,40.8,0c11.3,11.3,11.3,29.6,0,40.9C60.7,62,42.4,62,31.1,50.7z"/>
		
			<linearGradient id="SVGID_00000180349353295051901130000016128292694730187662_" gradientUnits="userSpaceOnUse" x1="-495.0795" y1="-149.6384" x2="-419.6851" y2="-149.6384" gradientTransform="matrix(-0.7071 0.7071 -0.7071 -0.7071 -384.4254 254.6141)">
			<stop  offset="0" style="stop-color:#E5E6E7"/>
			<stop  offset="0" style="stop-color:#D6D8D9"/>
			<stop  offset="0" style="stop-color:#D0D2D3"/>
			<stop  offset="0.1644" style="stop-color:#D0D2D3"/>
			<stop  offset="0.2273" style="stop-color:#DADBDC"/>
			<stop  offset="0.333" style="stop-color:#F4F4F5"/>
			<stop  offset="0.3714" style="stop-color:#FFFFFF"/>
			<stop  offset="0.4107" style="stop-color:#F5F5F6"/>
			<stop  offset="0.477" style="stop-color:#DBDBDC"/>
			<stop  offset="0.5614" style="stop-color:#B1B1B3"/>
			<stop  offset="0.6451" style="stop-color:#808184"/>
			<stop  offset="0.6562" style="stop-color:#797A7C"/>
			<stop  offset="0.6911" style="stop-color:#66676A"/>
			<stop  offset="0.7272" style="stop-color:#5C5D5F"/>
			<stop  offset="0.7666" style="stop-color:#58595B"/>
			<stop  offset="0.7703" style="stop-color:#4F4F51"/>
			<stop  offset="0.7764" style="stop-color:#383637"/>
			<stop  offset="0.7809" style="stop-color:#231F20"/>
			<stop  offset="0.7885" style="stop-color:#3F3D3E"/>
			<stop  offset="0.7987" style="stop-color:#5E5E5F"/>
			<stop  offset="0.8092" style="stop-color:#77787A"/>
			<stop  offset="0.8199" style="stop-color:#888A8C"/>
			<stop  offset="0.8311" style="stop-color:#939597"/>
			<stop  offset="0.8432" style="stop-color:#96999B"/>
			<stop  offset="0.8549" style="stop-color:#999B9D"/>
			<stop  offset="0.8619" style="stop-color:#A1A4A5"/>
			<stop  offset="0.8677" style="stop-color:#AFB1B3"/>
			<stop  offset="0.8728" style="stop-color:#C3C5C6"/>
			<stop  offset="0.8775" style="stop-color:#DDDEDF"/>
			<stop  offset="0.8818" style="stop-color:#FDFDFD"/>
			<stop  offset="0.882" style="stop-color:#FFFFFF"/>
			<stop  offset="0.8978" style="stop-color:#E9EAEB"/>
			<stop  offset="0.9218" style="stop-color:#CFD1D2"/>
			<stop  offset="0.9466" style="stop-color:#BDBEC1"/>
			<stop  offset="0.9722" style="stop-color:#B2B4B6"/>
			<stop  offset="1" style="stop-color:#AEB0B3"/>
		</linearGradient>
		<path style="fill:url(#SVGID_00000180349353295051901130000016128292694730187662_);" d="M33.4,48.4c-10-10-10-26.2,0-36.2
			c10-10,26.2-10,36.2,0c10,10,10,26.2,0,36.2C59.6,58.4,43.4,58.4,33.4,48.4z"/>
		
			<linearGradient id="SVGID_00000114068717690924161390000010069116323672494778_" gradientUnits="userSpaceOnUse" x1="-75.7189" y1="269.7221" x2="-0.3246" y2="269.7221" gradientTransform="matrix(0.7071 0.7071 0.7071 -0.7071 -105.5746 254.6141)">
			<stop  offset="0" style="stop-color:#E5E6E7"/>
			<stop  offset="0" style="stop-color:#D6D8D9"/>
			<stop  offset="0" style="stop-color:#D0D2D3"/>
			<stop  offset="0.1644" style="stop-color:#D0D2D3"/>
			<stop  offset="0.2273" style="stop-color:#DADBDC"/>
			<stop  offset="0.333" style="stop-color:#F4F4F5"/>
			<stop  offset="0.3714" style="stop-color:#FFFFFF"/>
			<stop  offset="0.4107" style="stop-color:#F5F5F6"/>
			<stop  offset="0.477" style="stop-color:#DBDBDC"/>
			<stop  offset="0.5614" style="stop-color:#B1B1B3"/>
			<stop  offset="0.6451" style="stop-color:#808184"/>
			<stop  offset="0.6562" style="stop-color:#797A7C"/>
			<stop  offset="0.6911" style="stop-color:#66676A"/>
			<stop  offset="0.7272" style="stop-color:#5C5D5F"/>
			<stop  offset="0.7666" style="stop-color:#58595B"/>
			<stop  offset="0.7703" style="stop-color:#4F4F51"/>
			<stop  offset="0.7764" style="stop-color:#383637"/>
			<stop  offset="0.7809" style="stop-color:#231F20"/>
			<stop  offset="0.7885" style="stop-color:#3F3D3E"/>
			<stop  offset="0.7987" style="stop-color:#5E5E5F"/>
			<stop  offset="0.8092" style="stop-color:#77787A"/>
			<stop  offset="0.8199" style="stop-color:#888A8C"/>
			<stop  offset="0.8311" style="stop-color:#939597"/>
			<stop  offset="0.8432" style="stop-color:#96999B"/>
			<stop  offset="0.8549" style="stop-color:#999B9D"/>
			<stop  offset="0.8619" style="stop-color:#A1A4A5"/>
			<stop  offset="0.8677" style="stop-color:#AFB1B3"/>
			<stop  offset="0.8728" style="stop-color:#C3C5C6"/>
			<stop  offset="0.8775" style="stop-color:#DDDEDF"/>
			<stop  offset="0.8818" style="stop-color:#FDFDFD"/>
			<stop  offset="0.882" style="stop-color:#FFFFFF"/>
			<stop  offset="0.8978" style="stop-color:#E9EAEB"/>
			<stop  offset="0.9218" style="stop-color:#CFD1D2"/>
			<stop  offset="0.9466" style="stop-color:#BDBEC1"/>
			<stop  offset="0.9722" style="stop-color:#B2B4B6"/>
			<stop  offset="1" style="stop-color:#AEB0B3"/>
		</linearGradient>
		<path style="fill:url(#SVGID_00000114068717690924161390000010069116323672494778_);" d="M69.6,48.4c10-10,10-26.2,0-36.2
			c-10-10-26.2-10-36.2,0c-10,10-10,26.2,0,36.2C43.4,58.4,59.6,58.4,69.6,48.4z"/>
		
			<radialGradient id="SVGID_00000086687671401711060340000016087915014533314985_" cx="-1265.7458" cy="-618.7871" r="2580.2842" gradientTransform="matrix(-3.820000e-02 3.820000e-02 -3.820000e-02 -3.820000e-02 19.6202 6.2505)" gradientUnits="userSpaceOnUse">
			<stop  offset="0" style="stop-color:#7A7A7A"/>
			<stop  offset="6.569088e-02" style="stop-color:#6B6B6B"/>
			<stop  offset="0.2614" style="stop-color:#454545"/>
			<stop  offset="0.4556" style="stop-color:#272727"/>
			<stop  offset="0.6456" style="stop-color:#111111"/>
			<stop  offset="0.8294" style="stop-color:#040404"/>
			<stop  offset="1" style="stop-color:#000000"/>
		</radialGradient>
		<path style="fill:url(#SVGID_00000086687671401711060340000016087915014533314985_);" d="M33.8,48c-9.8-9.8-9.8-25.6,0-35.4
			c9.8-9.8,25.6-9.8,35.4,0c9.8,9.8,9.8,25.6,0,35.4C59.4,57.7,43.6,57.7,33.8,48z"/>
		
			<radialGradient id="SVGID_00000115475392510652438520000004070185652377630857_" cx="200.9595" cy="693.9619" r="546.4727" gradientTransform="matrix(5.410000e-02 0 0 5.410000e-02 40.4544 -7.1235)" gradientUnits="userSpaceOnUse">
			<stop  offset="0" style="stop-color:#E5E6E7"/>
			<stop  offset="0" style="stop-color:#D6D8D9"/>
			<stop  offset="0" style="stop-color:#D0D2D3"/>
			<stop  offset="0.1644" style="stop-color:#D0D2D3"/>
			<stop  offset="0.2273" style="stop-color:#DADBDC"/>
			<stop  offset="0.333" style="stop-color:#F4F4F5"/>
			<stop  offset="0.3714" style="stop-color:#FFFFFF"/>
			<stop  offset="0.4246" style="stop-color:#F5F5F6"/>
			<stop  offset="0.5142" style="stop-color:#DBDBDC"/>
			<stop  offset="0.6283" style="stop-color:#B1B1B3"/>
			<stop  offset="0.7416" style="stop-color:#808184"/>
			<stop  offset="0.7439" style="stop-color:#797A7C"/>
			<stop  offset="0.751" style="stop-color:#66676A"/>
			<stop  offset="0.7585" style="stop-color:#5C5D5F"/>
			<stop  offset="0.7666" style="stop-color:#58595B"/>
			<stop  offset="0.7703" style="stop-color:#4F4F51"/>
			<stop  offset="0.7764" style="stop-color:#383637"/>
			<stop  offset="0.7809" style="stop-color:#231F20"/>
			<stop  offset="0.7885" style="stop-color:#3F3D3E"/>
			<stop  offset="0.7987" style="stop-color:#5E5E5F"/>
			<stop  offset="0.8092" style="stop-color:#77787A"/>
			<stop  offset="0.8199" style="stop-color:#888A8C"/>
			<stop  offset="0.8311" style="stop-color:#939597"/>
			<stop  offset="0.8432" style="stop-color:#96999B"/>
			<stop  offset="0.8549" style="stop-color:#999B9D"/>
			<stop  offset="0.8619" style="stop-color:#A1A4A5"/>
			<stop  offset="0.8677" style="stop-color:#AFB1B3"/>
			<stop  offset="0.8728" style="stop-color:#C3C5C6"/>
			<stop  offset="0.8775" style="stop-color:#DDDEDF"/>
			<stop  offset="0.8818" style="stop-color:#FDFDFD"/>
			<stop  offset="0.882" style="stop-color:#FFFFFF"/>
			<stop  offset="0.8978" style="stop-color:#E9EAEB"/>
			<stop  offset="0.9218" style="stop-color:#CFD1D2"/>
			<stop  offset="0.9466" style="stop-color:#BDBEC1"/>
			<stop  offset="0.9722" style="stop-color:#B2B4B6"/>
			<stop  offset="1" style="stop-color:#AEB0B3"/>
		</radialGradient>
		<path style="fill:url(#SVGID_00000115475392510652438520000004070185652377630857_);" d="M51.3,54.6c-13.4,0-24.2-10.9-24.2-24.2
			C27.1,17,38,6.2,51.3,6.2c13.4,0,24.2,10.8,24.2,24.2C75.5,43.8,64.7,54.6,51.3,54.6z"/>
	</g>
	
		<radialGradient id="SVGID_00000054253544304685894460000012490114599368575933_" cx="200.9595" cy="693.9619" r="546.4727" gradientTransform="matrix(5.410000e-02 0 0 5.410000e-02 40.4544 -7.1235)" gradientUnits="userSpaceOnUse">
		<stop  offset="0" style="stop-color:#E5E6E7"/>
		<stop  offset="0" style="stop-color:#D6D8D9"/>
		<stop  offset="0" style="stop-color:#D0D2D3"/>
		<stop  offset="0.1644" style="stop-color:#D0D2D3"/>
		<stop  offset="0.2273" style="stop-color:#DADBDC"/>
		<stop  offset="0.333" style="stop-color:#F4F4F5"/>
		<stop  offset="0.3714" style="stop-color:#FFFFFF"/>
		<stop  offset="0.4246" style="stop-color:#F5F5F6"/>
		<stop  offset="0.5142" style="stop-color:#DBDBDC"/>
		<stop  offset="0.6283" style="stop-color:#B1B1B3"/>
		<stop  offset="0.7416" style="stop-color:#808184"/>
		<stop  offset="0.7439" style="stop-color:#797A7C"/>
		<stop  offset="0.751" style="stop-color:#66676A"/>
		<stop  offset="0.7585" style="stop-color:#5C5D5F"/>
		<stop  offset="0.7666" style="stop-color:#58595B"/>
		<stop  offset="0.7703" style="stop-color:#4F4F51"/>
		<stop  offset="0.7764" style="stop-color:#383637"/>
		<stop  offset="0.7809" style="stop-color:#231F20"/>
		<stop  offset="0.7885" style="stop-color:#3F3D3E"/>
		<stop  offset="0.7987" style="stop-color:#5E5E5F"/>
		<stop  offset="0.8092" style="stop-color:#77787A"/>
		<stop  offset="0.8199" style="stop-color:#888A8C"/>
		<stop  offset="0.8311" style="stop-color:#939597"/>
		<stop  offset="0.8432" style="stop-color:#96999B"/>
		<stop  offset="0.8549" style="stop-color:#999B9D"/>
		<stop  offset="0.8619" style="stop-color:#A1A4A5"/>
		<stop  offset="0.8677" style="stop-color:#AFB1B3"/>
		<stop  offset="0.8728" style="stop-color:#C3C5C6"/>
		<stop  offset="0.8775" style="stop-color:#DDDEDF"/>
		<stop  offset="0.8818" style="stop-color:#FDFDFD"/>
		<stop  offset="0.882" style="stop-color:#FFFFFF"/>
		<stop  offset="0.8978" style="stop-color:#E9EAEB"/>
		<stop  offset="0.9218" style="stop-color:#CFD1D2"/>
		<stop  offset="0.9466" style="stop-color:#BDBEC1"/>
		<stop  offset="0.9722" style="stop-color:#B2B4B6"/>
		<stop  offset="1" style="stop-color:#AEB0B3"/>
	</radialGradient>
	<path style="opacity:0.3;fill:url(#SVGID_00000054253544304685894460000012490114599368575933_);" d="M75.5,30.6H51.7l-0.1,0l1,0
		l0,0L75.5,30c0-0.3,0-0.7,0-1l-23.4,1.5l-0.5,0.1h0.2l-0.3,0l0,0h0l0,0h0.1h-0.1l0.1,0l0,0l0.5-0.1l0,0l0.5-0.1c0,0,0,0,0,0
		L75.4,28c0-0.3-0.1-0.7-0.1-1l-23.1,3.5l0.5-0.1c0,0,0,0,0,0l22.5-4.4c-0.1-0.3-0.1-0.7-0.2-1l-23.2,5.6l0.8-0.2c0,0,0,0,0,0
		l22.1-6.3c-0.1-0.3-0.2-0.7-0.3-1l-21.8,7.3l0,0l-1,0.3l-0.1,0h0h0l0,0h0l0,0h0h0l0,0h0h0l0,0l0,0h0l0,0l0,0l0,0h0h0v0h0l0,0l0,0
		l-0.1,0h0h0l0,0L74,21.9c-0.1-0.3-0.3-0.6-0.4-1l-21.1,9.1c0,0,0,0,0,0L52,30.3L73.2,20c-0.2-0.3-0.3-0.6-0.5-0.9L52.4,30
		c0,0,0,0,0-0.1L52.3,30l19.9-11.8c-0.2-0.3-0.4-0.6-0.5-0.9L52.4,29.9c0,0,0,0,0,0l-0.1,0.1l18.9-13.5c-0.2-0.3-0.4-0.6-0.6-0.8
		L52.3,29.8c0,0,0,0,0,0l-0.5,0.4l18-15.3c-0.2-0.3-0.5-0.5-0.7-0.8L52.2,29.7c0,0,0,0,0,0l-0.9,0.8l0.2-0.2l-0.1,0.1l-0.1,0.1l0,0
		l0,0l0,0l0.1-0.1l0,0l0,0h0l0,0l0,0l0,0l0,0l0,0l0,0l0,0l0.8-0.9l-0.8,0.8l17-17.2c-0.2-0.2-0.5-0.5-0.8-0.7l-15.5,17l0,0l-0.1,0.1
		l-0.6,0.7l0.7-0.8c0,0,0,0,0,0l14.8-17.7c-0.3-0.2-0.6-0.4-0.8-0.7L51.6,30.1l0.4-0.6c0,0,0,0,0,0l13.2-18.9
		c-0.3-0.2-0.6-0.4-0.9-0.6L51.6,29.9l0.3-0.6c0,0,0,0,0,0L63.5,9.5c-0.3-0.2-0.6-0.3-0.9-0.5L51.5,30.1l0.3-0.7c0,0,0,0,0,0
		l9.8-20.8c-0.3-0.1-0.6-0.3-0.9-0.4l-9.4,22.3l0-0.1l8.4-22.6c-0.3-0.1-0.7-0.2-1-0.3l-7.1,21.9c0,0,0,0,0,0L51.4,30l6.3-23
		c-0.3-0.1-0.7-0.2-1-0.3l-5.2,22.5c0,0,0,0,0,0l4.2-22.6c-0.3-0.1-0.7-0.1-1-0.2L51.3,30l0,0.2l0-0.3l0,0.3l0,0.1l0,0.1v0v0l0-0.2
		l0,0l0-0.3l0,0l0.1-0.7c0,0,0,0-0.1,0l2.3-22.9c-0.3,0-0.7-0.1-1-0.1l-1.3,23c0,0,0,0,0,0l0,0.7l0.3-23.7c-0.1,0-0.2,0-0.3,0
		c-0.3,0-0.5,0-0.8,0l0.7,23.7l-0.1-0.7c0,0,0,0,0,0l-1.6-23c-0.3,0-0.7,0.1-1,0.1l2.6,23.2l0-0.3c0,0,0,0,0,0L47.4,6.5
		c-0.3,0.1-0.7,0.1-1,0.2l4.7,23.2l0.1,0.3l-0.1-0.5L51,29.2l0.1,0.4l0,0l0.1,0.4v0v0l0,0.2l0-0.1l-0.1-0.3l0,0l-0.2-0.6
		c0,0,0,0,0,0L45.4,6.9c-0.3,0.1-0.7,0.2-1,0.3l6.7,23.2l-0.1-0.2l0,0.1l-0.3-1l0.3,0.9L43.4,7.5c-0.3,0.1-0.7,0.2-1,0.4l8.3,21.4
		c0,0,0,0,0,0l0.3,0.8L41.5,8.3c-0.3,0.1-0.6,0.3-0.9,0.4l10.1,20.6c0,0,0,0,0,0l0.1,0.3l0.3,0.5l0,0l0.1,0.2L51,30.2l0.1,0.2l0,0.1
		l0,0.1l0,0.1l0,0l0,0v0l0,0v0l0,0l0,0l0,0h0h0h0l0,0l0,0l0,0l0,0v0l0,0l0,0l0,0l0-0.1l0,0l0-0.1l0,0L51,30.2l0,0l-0.3-0.6l0.4,0.6
		l-0.3-0.5L39.6,9.2c-0.3,0.2-0.6,0.3-0.9,0.5l11.8,19.7c0,0,0,0-0.1,0l0.1,0.2L37.9,10.3c-0.3,0.2-0.6,0.4-0.8,0.6l13.4,18.6
		c0,0,0,0,0,0l0.3,0.4L36.2,11.5c-0.3,0.2-0.5,0.4-0.8,0.7l14.9,17.4c0,0,0,0,0,0l0.6,0.7L34.6,12.9c-0.2,0.2-0.5,0.5-0.7,0.7
		l16.3,16c0,0,0,0,0,0l0.7,0.7l0,0l0.2,0.2l0,0l-0.2-0.2l0.2,0.2l0,0h0l0,0l0,0l-0.9-0.8l0,0l-17-15.3c-0.2,0.3-0.5,0.5-0.7,0.8
		l18.2,15.1l-0.7-0.5l0,0L31.9,15.9c-0.2,0.3-0.4,0.6-0.6,0.8l19.3,13.4l0.2,0.2l-0.2-0.2l0,0l-0.5-0.3c0,0,0,0,0,0L30.7,17.7
		c-0.2,0.3-0.3,0.6-0.5,0.9l20.4,11.7L50,29.9c0,0,0,0,0,0L29.7,19.5c-0.2,0.3-0.3,0.6-0.4,0.9l21.6,10l0.1,0l-0.1,0l0,0L50,30.1v0
		l-21.1-8.7c-0.1,0.3-0.2,0.6-0.4,1l21.4,7.8v0l1.1,0.4l0,0l0.1,0h0h0l0,0l0,0l0,0l-0.2,0l-0.2-0.1l0.4,0.1l0,0l-22.9-7.3
		c-0.1,0.3-0.2,0.7-0.3,1l22,6c0,0,0,0,0,0l0.3,0.1l-22.6-5.1c-0.1,0.3-0.1,0.7-0.2,1l22.4,4.1c0,0,0,0,0,0.1l-22.6-3.1
		c0,0.3-0.1,0.7-0.1,1l23.4,2.2l0.3,0h-0.2l0.3,0h0l0,0l0,0l0,0l-0.3,0h0l-0.8-0.1c0,0,0,0,0,0.1l0.1,0l-22.8-1.2c0,0.3,0,0.7,0,1
		l22.7,0.2c0,0,0,0,0,0h1l-1,0c0,0,0,0,0,0l-22.7,0.7c0,0.3,0,0.7,0.1,1l22.7-1.7c0,0,0,0,0,0l0.7-0.1h0l0.3,0l0,0l0.1,0l0,0h0
		l-0.1,0h-0.1l-0.3,0l0.3,0l-0.3,0.1l-23.3,2.7c0,0.3,0.1,0.7,0.1,1l22.4-3.6c0,0,0,0,0,0l-22.3,4.5c0.1,0.3,0.2,0.7,0.2,1l22.6-5.7
		L49.9,31c0,0,0,0,0,0l-21.8,6.4c0.1,0.3,0.2,0.6,0.3,1l22.6-7.8l-0.2,0l-1,0.3v0l1-0.3l0,0l0.1,0h0h0h0h0.1h0l0,0l0,0l0,0h0l0,0
		l0,0h0h0h0l0,0l0,0l0,0l0,0v0v0h0l0,0l0,0l0,0l0,0v0l0,0h0v0h0l0,0l0,0h0l0,0l0,0l0,0l0,0l0,0l0,0h0l0,0h0h0l-0.1,0l0.1,0l-0.5,0.2
		L50.2,31l0,0l-0.3,0.1c0,0,0,0,0,0l-21.1,8.3c0.1,0.3,0.3,0.6,0.4,0.9L50,31.1c0,0,0,0,0,0l0.8-0.3L29.7,41.2
		c0.2,0.3,0.3,0.6,0.5,0.9L50,31.2c0,0,0,0,0,0l0.5-0.3l0,0l0.3-0.2l0,0l0.1-0.1l0,0l0.1-0.1l0,0l0,0l0,0l0,0l0,0l0,0h0h0l0,0l0,0
		L51,30.7l0.1-0.1L51,30.7l-0.1,0.1L50.6,31l0.3-0.2L50.6,31L30.7,43c0.2,0.3,0.4,0.6,0.5,0.9l18.9-12.5c0,0,0,0,0,0l0.5-0.3l0,0
		l0.3-0.2l0.1-0.1l-0.1,0L50.7,31l0.2-0.2L50.6,31L31.8,44.7c0.2,0.3,0.4,0.5,0.6,0.8l17.7-14.1c0,0,0,0,0,0l0.7-0.5L33.1,46.3
		c0.2,0.3,0.4,0.5,0.7,0.8l16.7-15.8l0.6-0.5L51,30.8l0.1,0l0-0.1v0l0,0l-0.9,0.9c0,0,0,0,0,0L34.5,47.8c0.2,0.2,0.5,0.5,0.8,0.7
		L50.8,31l-0.5,0.6c0,0,0,0,0,0L36,49.2c0.3,0.2,0.5,0.4,0.8,0.6l13.8-18.4l-0.2,0.3c0,0,0,0,0,0L37.6,50.4c0.3,0.2,0.6,0.4,0.8,0.5
		l12.1-19.3l-0.1,0.2c0,0,0,0,0.1,0L39.4,51.5c0.3,0.2,0.6,0.3,0.9,0.5l10.6-20.5l-0.2,0.4c0,0,0,0,0,0l-9.5,20.6
		c0.3,0.2,0.6,0.3,0.9,0.4l9-21.9l-0.4,1c0,0,0,0,0,0l-7.7,21.3c0.3,0.1,0.6,0.2,1,0.3l6.8-21.7l0.3-0.9v0l0,0l0,0L45,53.8
		c0.3,0.1,0.7,0.1,1,0.2l4.9-22.1c0,0,0,0,0,0l0.1-0.5l-4,22.8c0.3,0.1,0.7,0.1,1,0.2l3-22.5c0,0,0,0,0.1,0l0-0.4l-2,22.9
		c0.3,0,0.7,0.1,1,0.1L51.1,32c0,0,0,0,0,0l0-1l0,0v0v0v0.4V32l0,0l-0.1,22.6c0.1,0,0.1,0,0.2,0c0.3,0,0.5,0,0.8,0l-0.8-22.9
		l-0.1-0.8l0,0l0.1,0.8l0,0l0,0.3c0,0,0,0,0,0l-0.1-0.8l0-0.2l0.1,0.3l1.9,23.3c0.3,0,0.7-0.1,1-0.1L51.4,32c0,0,0,0,0.1,0l-0.1-0.7
		l0,0L51.3,31l0,0l0-0.2l0,0l0-0.1v0l0,0v0l0,0l0,0.1l0-0.1l0,0.1V31l0.1,0.3l0-0.3l0,0.2l0,0l0,0l3.8,23.1c0.3-0.1,0.7-0.1,1-0.2
		l-4.7-22.4l0-0.1l0,0.1l0,0l0,0.2c0,0,0,0,0,0l5.6,22c0.3-0.1,0.7-0.2,1-0.3l-6.9-22.7l0-0.1l0.1,0.5L51.3,31l0-0.2v0l0,0v0l0,0v0
		l0,0.1l0,0l0.3,1h0l7.5,21.4c0.3-0.1,0.7-0.2,1-0.4l-8.5-21.3l-0.3-0.7l9.7,21.7c0.3-0.1,0.6-0.3,0.9-0.4L51.8,31.8c0,0,0,0,0,0
		l-0.3-0.6l11.4,20.5c0.3-0.2,0.6-0.3,0.9-0.5L51.9,31.8c0,0,0,0,0,0l-0.3-0.5l13,19.4c0.3-0.2,0.6-0.4,0.9-0.6L52,31.7c0,0,0,0,0,0
		l-0.5-0.6l14.7,18.3c0.3-0.2,0.5-0.4,0.8-0.7l-15-17.1l0,0l-0.7-0.9l0.4,0.4l0.4,0.4c0,0,0,0,0,0l15.7,16.5
		c0.2-0.2,0.5-0.5,0.7-0.7L51.4,30.8l0.8,0.7c0,0,0,0,0,0l17.1,15.1c0.2-0.3,0.4-0.5,0.7-0.8L51.9,31.2l-0.4-0.3l0.2,0.2l-0.3-0.3h0
		l0,0h0l0,0l0,0v0l0.1,0.1l0,0l0.4,0.3l0,0l0.4,0.3c0,0,0,0,0,0L70.6,45c0.2-0.3,0.4-0.6,0.6-0.8l-19-12.9l0.1,0.1c0,0,0,0,0,0
		l19.4,12c0.2-0.3,0.4-0.6,0.6-0.9L52.2,31.1l0.2,0.1c0,0,0,0,0,0l20.4,10.3c0.1-0.3,0.3-0.6,0.4-0.9l-21.4-9.7l-0.3-0.1l0.5,0.2
		l-0.5-0.2l-0.2-0.1l0.1,0.1v0l0.3,0.1l0.7,0.3c0,0,0,0,0,0l21.2,8.6c0.1-0.3,0.3-0.6,0.4-1l-22.7-8l0,0l1.1,0.3l-0.9-0.3l-0.2-0.1
		l0,0l0,0l0,0l0,0l0,0l0,0l0,0l0,0h0h0h0h0l0,0h0h0h0l0,0h0l0,0l0.1,0l0,0l0.9,0.3l0,0l21.9,6.7c0.1-0.3,0.2-0.6,0.3-1l-22.2-5.8
		c0,0,0,0,0,0l0,0l-0.7-0.2h0l0,0l0,0l23.1,5c0.1-0.3,0.1-0.7,0.2-1l-22.6-3.9c0,0,0,0,0,0l-0.4-0.1l23.1,2.9c0.1-0.3,0.1-0.7,0.1-1
		l-22.8-1.9c0,0,0,0,0-0.1L52,30.6l23.5,1C75.5,31.3,75.5,30.9,75.5,30.6z M51.2,30.2l0.1-0.9l0,0.7l0,0.3V30.2z M52.3,31.5
		L52.3,31.5L51.8,31L52.3,31.5z M51.5,30.6L51.5,30.6L51.5,30.6L51.5,30.6L51.5,30.6L51.5,30.6z M51.3,30.6L51.3,30.6L51.3,30.6
		L51.3,30.6L51.3,30.6L51.3,30.6L51.3,30.6L51.3,30.6L51.3,30.6z M51.4,30.7L51.4,30.7L51.4,30.7L51.4,30.7L51.4,30.7z M51.5,30.8
		l-0.1-0.1l0,0L51.5,30.8L51.5,30.8z M51.3,30.7L51.3,30.7L51.3,30.7L51.3,30.7L51.3,30.7L51.3,30.7L51.3,30.7L51.3,30.7L51.3,30.7
		L51.3,30.7L51.3,30.7L51.3,30.7L51.3,30.7z M51.3,30.7L51.3,30.7L51.3,30.7L51.3,30.7L51.3,30.7L51.3,30.7L51.3,30.7L51.3,30.7
		L51.3,30.7L51.3,30.7L51.3,30.7z M51.3,30.7L51.3,30.7L51.3,30.7L51.3,30.7L51.3,30.7z M51.3,30.7L51.3,30.7L51.3,30.7L51.3,30.7
		L51.3,30.7L51.3,30.7L51.3,30.7L51.3,30.7L51.3,30.7L51.3,30.7L51.3,30.7z M51.2,30.6L51.2,30.6L51.2,30.6L51.2,30.6L51.2,30.6
		L51.2,30.6z M51.3,30.5L51.3,30.5L51.3,30.5L51.3,30.5L51.3,30.5z M51.3,30.4L51.3,30.4L51.3,30.4L51.3,30.4L51.3,30.4z M51.3,30.5
		L51.3,30.5L51.3,30.5L51.3,30.5z M51.3,30.5L51.3,30.5L51.3,30.5L51.3,30.5L51.3,30.5L51.3,30.5L51.3,30.5z M51.3,30.6L51.3,30.6
		L51.3,30.6L51.3,30.6z M51.3,30.6L51.3,30.6L51.3,30.6L51.3,30.6L51.3,30.6L51.3,30.6L51.3,30.6z M51.3,30.6L51.3,30.6L51.3,30.6
		L51.3,30.6L51.3,30.6z M51.3,30.6L51.3,30.6L51.3,30.6L51.3,30.6L51.3,30.6L51.3,30.6L51.3,30.6L51.3,30.6z M51.3,30.6L51.3,30.6
		L51.3,30.6L51.3,30.6L51.3,30.6L51.3,30.6L51.3,30.6L51.3,30.6L51.3,30.6L51.3,30.6L51.3,30.6L51.3,30.6z M51.3,30.5L51.3,30.5
		L51.3,30.5L51.3,30.5z M51.3,30.6L51.3,30.6L51.3,30.6L51.3,30.6L51.3,30.6L51.3,30.6z M51.3,30.6L51.3,30.6L51.3,30.6L51.3,30.6
		L51.3,30.6z M51.3,30.6L51.3,30.6L51.3,30.6L51.3,30.6z M51.3,30.5L51.3,30.5L51.3,30.5L51.3,30.5z M51.3,30.5L51.3,30.5L51.3,30.5
		L51.3,30.5z M51.3,30.6L51.3,30.6L51.3,30.6L51.3,30.6L51.3,30.6z M51.3,30.5L51.3,30.5L51.3,30.5L51.3,30.5L51.3,30.5L51.3,30.5
		L51.3,30.5L51.3,30.5L51.3,30.5L51.3,30.5L51.3,30.5L51.3,30.5L51.3,30.5L51.3,30.5L51.3,30.5L51.3,30.5L51.3,30.5L51.3,30.5z
		 M51.3,30.5L51.3,30.5L51.3,30.5L51.3,30.5z M51.3,30.5L51.3,30.5L51.3,30.5L51.3,30.5L51.3,30.5L51.3,30.5z M51.3,30.5L51.3,30.5
		L51.3,30.5L51.3,30.5z M51.3,30.5L51.3,30.5L51.3,30.5L51.3,30.5z M51.3,30.7L51.3,30.7L51.3,30.7L51.3,30.7L51.3,30.7L51.3,30.7
		L51.3,30.7L51.3,30.7L51.3,30.7L51.3,30.7z M51.3,30.7L51.3,30.7L51.3,30.7L51.3,30.7L51.3,30.7z M51.3,30.7L51.3,30.7L51.3,30.7
		L51.3,30.7z M51.3,30.6L51.3,30.6L51.3,30.6L51.3,30.6z M51.3,30.6L51.3,30.6L51.3,30.6L51.3,30.6z M51.3,30.6L51.3,30.6L51.3,30.6
		L51.3,30.6L51.3,30.6L51.3,30.6L51.3,30.6L51.3,30.6L51.3,30.6L51.3,30.6L51.3,30.6L51.3,30.6L51.3,30.6L51.3,30.6L51.3,30.6
		L51.3,30.6L51.3,30.6L51.3,30.6z M51.3,30.6L51.3,30.6L51.3,30.6L51.3,30.6z M51.5,30.6L51.5,30.6L51.5,30.6h-0.1H51.5L51.5,30.6z
		 M51.5,30.6L51.5,30.6L51.5,30.6L51.5,30.6L51.5,30.6z M51.4,30.6L51.4,30.6L51.4,30.6L51.4,30.6L51.4,30.6L51.4,30.6L51.4,30.6z
		 M52.2,30.5l-0.5,0.1l-0.2,0l0.2,0L52.2,30.5z M51.5,30.5L51.5,30.5L51.5,30.5l0.1,0l0.4-0.1l-0.3,0.1L51.5,30.5L51.5,30.5
		L51.5,30.5L51.5,30.5l-0.1,0l0,0l0,0l0,0L51.5,30.5L51.5,30.5L51.5,30.5z M51.3,30.5L51.3,30.5L51.3,30.5L51.3,30.5L51.3,30.5
		L51.3,30.5L51.3,30.5L51.3,30.5L51.3,30.5L51.3,30.5z M51.3,30.5L51.3,30.5L51.3,30.5L51.3,30.5L51.3,30.5z M52.5,30.1l-0.8,0.3
		l-0.3,0.1l0,0l0.1,0l0.2-0.1v0L52.5,30.1z M51.6,30.4l-0.1,0.1L51.6,30.4l-0.1,0l-0.1,0.1l-0.1,0l0.1,0h0h0l0.1,0l0,0L51.6,30.4
		L51.6,30.4l0.6-0.3L51.6,30.4z M52.3,29.9l-0.6,0.4l-0.2,0.1l0.2-0.1l0,0l0,0L52.3,29.9z M51.5,30.4L52,30L51.5,30.4L51.5,30.4
		L51.5,30.4z M51.5,30.4L51.5,30.4l-0.1,0.1L51.5,30.4L51.5,30.4z M51.3,30.5L51.3,30.5L51.3,30.5L51.3,30.5L51.3,30.5L51.3,30.5
		L51.3,30.5L51.3,30.5z M51.4,30.4L51.4,30.4L51.4,30.4l0.2-0.2L51.4,30.4z M51.5,30.2l0.2-0.3L51.5,30.2L51.5,30.2l-0.1,0.2l0,0.1
		l0,0l0,0h0l0,0l0,0l0,0h0l0,0l0,0l0-0.1l0-0.1h0L51.5,30.2L51.5,30.2L51.5,30.2z M51.6,30l-0.1,0.3h0l-0.1,0.1l0,0l0,0.1l0,0l0,0.1
		l0,0l0,0l0,0v0h0l0,0l0,0l0-0.1l0,0l0,0l0-0.1l0.1-0.1l-0.1,0.1l0-0.1L51.6,30z M51.4,30.2l-0.1,0.1l-0.1,0.1v0l0,0l0,0h0l0,0v0
		l0,0L51.4,30.2z M51.3,30.4L51.3,30.4l0-0.1l0-0.2l0,0l0.1-0.4v0l0.1-0.4l-0.1,0.4L51.3,30.4L51.3,30.4l0.1-0.3l0,0.2L51.3,30.4
		L51.3,30.4L51.3,30.4L51.3,30.4l0,0.1l0,0l0,0l0,0l0,0l0,0l0,0v0l0,0l0,0L51.3,30.4L51.3,30.4L51.3,30.4z M51.2,30.5L51.2,30.5
		L51.2,30.5L51.2,30.5z M51.1,29.7l-0.1-0.4L51.1,29.7L51.1,29.7l0.1,0.5l0,0l0,0.1l0-0.1v0.1l0-0.2L51.1,29.7z M51.2,30.3
		L51.2,30.3L51.2,30.3L51.2,30.3l0,0.1v0l0,0v0l0,0l0,0l0,0l0,0l0,0l0,0.1L51.2,30.3L51.2,30.3z M51.2,30.8L51.2,30.8L51.2,30.8
		L51.2,30.8L51.2,30.8L51.2,30.8L51.2,30.8L51.2,30.8L51.2,30.8v-0.1V30.8L51.2,30.8L51.2,30.8L51.2,30.8L51.2,30.8z M51.2,30.7
		L51.2,30.7L51.2,30.7L51.2,30.7L51.2,30.7L51.2,30.7L51.2,30.7z M51.2,30.5L51.2,30.5L51.2,30.5L51.2,30.5L51.2,30.5z M51.2,30.5
		L51.2,30.5L51.2,30.5L51.2,30.5L51.2,30.5L51.2,30.5L51.2,30.5L51.2,30.5L51.2,30.5L51.2,30.5L51.2,30.5L51.2,30.5z M51.2,30.5
		L51.2,30.5L51.2,30.5L51.2,30.5L51.2,30.5L51.2,30.5L51.2,30.5z M51.2,30.5L51.2,30.5L51.2,30.5L51.2,30.5L51.2,30.5z M51.2,30.5
		L51.2,30.5L51.2,30.5L51.2,30.5z M51.2,30.5L51.2,30.5L51.2,30.5L51.2,30.5z M51.2,30.4L51.2,30.4l-0.1-0.3l0,0.2L51.2,30.4
		L51.2,30.4L51.2,30.4L51.2,30.4L51.2,30.4L51.2,30.4L51.2,30.4L51.2,30.4L51.2,30.4L51.2,30.4L51.2,30.4L51.2,30.4L51.2,30.4
		L51.2,30.4L51.2,30.4L51.2,30.4L51.2,30.4L51.2,30.4L51.2,30.4L51.2,30.4L51.2,30.4L51.2,30.4z M50.9,29.8L50.9,29.8l-0.2-0.5
		L50.9,29.8l0.2,0.5l0,0.1l-0.1-0.2l0,0v0L50.9,29.8z M51.1,30.4L51.1,30.4l0.1,0.1L51.1,30.4L51.1,30.4L51.1,30.4L51.1,30.4z
		 M51.2,30.5L51.2,30.5L51.2,30.5L51.2,30.5L51.2,30.5L51.2,30.5L51.2,30.5L51.2,30.5L51.2,30.5L51.2,30.5L51.2,30.5L51.2,30.5
		L51.2,30.5L51.2,30.5L51.2,30.5L51.2,30.5z M51.1,30.7L51.1,30.7L51.1,30.7L51.1,30.7L51.1,30.7z M51.1,30.7L51.1,30.7l-0.1,0.1
		L51.1,30.7L51.1,30.7z M51.2,30.7L51.2,30.7L51.2,30.7L51.2,30.7z M51.1,30.6L51.1,30.6L51.1,30.6L51.1,30.6L51.1,30.6L51.1,30.6
		L51.1,30.6L51.1,30.6L51.1,30.6L51.1,30.6L51.1,30.6L51.1,30.6z M51.1,30.6L51.1,30.6L51.1,30.6L51.1,30.6L51.1,30.6L51.1,30.6
		L51.1,30.6L51.1,30.6z M51.1,30.6L51.1,30.6L51.1,30.6L51.1,30.6z M51.1,30.6L51.1,30.6L51.1,30.6L51.1,30.6L51.1,30.6L51.1,30.6
		L51.1,30.6L51.1,30.6L51.1,30.6L51.1,30.6L51.1,30.6L51.1,30.6z M51.1,30.5L51.1,30.5L51,30.4l-0.1-0.1l0.1,0.1h0L51.1,30.5
		L51.1,30.5L51.1,30.5L51.1,30.5L51.1,30.5z M51.1,30.5L51.1,30.5L51.1,30.5L51.1,30.5L51.1,30.5z M51.1,30.6L51.1,30.6L51.1,30.6
		L51.1,30.6z M51.2,30.6L51.2,30.6L51.2,30.6L51.2,30.6z M51.2,30.6L51.2,30.6L51.2,30.6L51.2,30.6L51.2,30.6L51.2,30.6L51.2,30.6z
		 M51.2,30.6L51.2,30.6L51.2,30.6L51.2,30.6z M51.2,30.6L51.2,30.6L51.2,30.6L51.2,30.6L51.2,30.6L51.2,30.6L51.2,30.6L51.2,30.6
		L51.2,30.6L51.2,30.6L51.2,30.6L51.2,30.6z M51.1,30.5L51.1,30.5L51.1,30.5L51.1,30.5z M51.2,30.6L51.2,30.6L51.2,30.6L51.2,30.6z
		 M51.2,30.6L51.2,30.6L51.2,30.6L51.2,30.6z M51.2,30.6L51.2,30.6L51.2,30.6L51.2,30.6z M51.2,30.5L51.2,30.5L51.2,30.5L51.2,30.5z
		 M51.2,30.5L51.2,30.5L51.2,30.5L51.2,30.5L51.2,30.5L51.2,30.5L51.2,30.5z M51.1,30.5L51.1,30.5L51.1,30.5L51.1,30.5L51.1,30.5
		L51.1,30.5L51.1,30.5L51.1,30.5L51.1,30.5z M51.1,30.5L51.1,30.5L51.1,30.5L51.1,30.5L51.1,30.5L51.1,30.5L51.1,30.5L51.1,30.5z
		 M51.1,30.5L51.1,30.5L51.1,30.5L51.1,30.5L51.1,30.5z M50.6,29.7l0.4,0.5l0.1,0.2L51,30.2L50.6,29.7z M50.8,30.1L50.8,30.1
		l-0.4-0.5L50.8,30.1l0.2,0.3l0.1,0.1l0,0L50.8,30.1z M51.1,30.5L51.1,30.5L51,30.4L51.1,30.5L51.1,30.5z M50.9,30.4l-0.2-0.2
		L50.9,30.4l0.2,0.1L50.9,30.4L50.9,30.4L50.9,30.4z M50.6,30.2l0.3,0.2h0h0l0.1,0.1l-0.1-0.1L50.6,30.2z M51,30.5L51,30.5L51,30.5
		L51,30.5L51,30.5l-0.4-0.2l0.2,0.1L51,30.5L51,30.5L51,30.5L51,30.5L51,30.5l0.1,0L51,30.5l0.1,0h0h0l0,0l0,0L51,30.5L51,30.5
		L51,30.5z M51.1,30.5L51.1,30.5L51.1,30.5L51.1,30.5L51.1,30.5L51.1,30.5L51.1,30.5L51.1,30.5L51.1,30.5L51.1,30.5L51.1,30.5
		L51.1,30.5L51.1,30.5L51.1,30.5l-0.1,0L51.1,30.5z M49.9,30.3l0.8,0.2l0.2,0l-0.3,0L49.9,30.3z M51,30.6l-0.2,0L51,30.6L51,30.6
		L51,30.6z M50.6,30.6h0.2l0.1,0h-0.1L50.6,30.6z M50.7,30.6l-0.5,0l0.7,0h0l0,0l0,0h0L50.7,30.6z M51,30.6L51,30.6L51,30.6L51,30.6
		L51,30.6z M50.8,30.7l-0.7,0.2l0.6-0.1l0.3,0L50.8,30.7z M51,30.6l-0.2,0L51,30.6L51,30.6L51,30.6z M51.1,30.6L51.1,30.6L51.1,30.6
		L51.1,30.6z M51.1,30.6L51.1,30.6L51.1,30.6L51.1,30.6z M51.1,30.6L51.1,30.6L51.1,30.6L51.1,30.6L51.1,30.6L51.1,30.6L51.1,30.6
		L51.1,30.6L51.1,30.6L51.1,30.6L51.1,30.6L51.1,30.6z M51.1,30.6L51.1,30.6L51.1,30.6L51.1,30.6L51.1,30.6z M51.1,30.6L51.1,30.6
		L51.1,30.6L51.1,30.6z M50.9,30.8l-0.3,0.1L50.9,30.8l0.1-0.1L50.9,30.8z M51.1,30.7L51.1,30.7L51.1,30.7L51.1,30.7L51.1,30.7z
		 M51.1,30.6L51.1,30.6L51.1,30.6L51.1,30.6L51.1,30.6z M51.2,30.6L51.2,30.6L51.2,30.6L51.2,30.6L51.2,30.6L51.2,30.6L51.2,30.6z
		 M50.3,31.6l0.8-0.8h0l0-0.1l0,0l0,0L50.3,31.6z M51,30.9l-0.2,0.3l-0.3,0.4l0.3-0.4h0l0.3-0.4l0,0l0.1-0.1l0,0l0,0l0,0l0,0l0,0
		l0,0l0,0l0,0h0h0l0,0l0,0l0,0v0l0,0L51,30.8l0-0.1L51,30.9L51,30.9L51,30.9z M50.6,31.5l-0.1,0.2l0,0L50.6,31.5L50.6,31.5L51,31
		l0,0l0.1-0.2h0l0-0.1l0,0l0,0l0,0l0,0l0,0.1l0,0.1L51,31l0.1-0.1L51,31L50.6,31.5z M50.7,31.6L51,31l0.1-0.2L51,31L50.7,31.6z
		 M51,31.2l-0.3,0.7l0,0L51,31.2L51,31.2l0.1-0.3h0l0-0.1l0-0.1l0,0l0,0l0,0l0,0l0,0l0,0v0l0,0v0l0,0l0,0l0,0l0,0l0,0l0,0l0,0v0v0h0
		h0v0h0l0,0v0l0,0v0v0l0,0l0,0l0-0.1l0,0v0l-0.1,0.1l0,0.1l0.1-0.1l0,0L51,31.2z M51.2,30.7L51.2,30.7L51.2,30.7L51.2,30.7z
		 M50.9,31.9l0.2-0.7l0.1-0.3v0v0l0-0.1l0,0l0-0.1l0,0l0,0v0.1l0-0.1v-0.1v0v0l0,0l0,0l0,0h0l0,0l0,0l0,0.1l0,0.1v0l0,0.1l0,0
		l-0.1,0.2l0,0L50.9,31.9z M51.1,31.5l0.1-0.5l0-0.2l0,0.2L51.1,31.5z M51.2,30.9L51.2,30.9L51.2,30.9l0,0.5l0-0.3L51.2,30.9
		L51.2,30.9L51.2,30.9L51.2,30.9z M51.2,30.7L51.2,30.7L51.2,30.7L51.2,30.7z M51.2,30.7L51.2,30.7L51.2,30.7L51.2,30.7L51.2,30.7
		L51.2,30.7L51.2,30.7L51.2,30.7L51.2,30.7L51.2,30.7z M51.3,31.9l0-0.9v0L51.3,31.9z M51.2,30.4L51.2,30.4L51.2,30.4L51.2,30.4z
		 M51.2,30.2v-0.1v-0.9V30.2L51.2,30.2z M51.2,30.7L51.2,30.7L51.2,30.7L51.2,30.7z M51.2,30.6L51.2,30.6L51.2,30.6L51.2,30.6z
		 M51.2,30.6L51.2,30.6L51.2,30.6L51.2,30.6z M51.2,30.7L51.2,30.7L51.2,30.7L51.2,30.7L51.2,30.7L51.2,30.7L51.2,30.7L51.2,30.7
		L51.2,30.7L51.2,30.7L51.2,30.7L51.2,30.7L51.2,30.7z M51.3,30.8l0,0.1L51.3,30.8L51.3,30.8L51.3,30.8L51.3,30.8L51.3,30.8z
		 M51.3,30.8L51.3,30.8L51.3,30.8L51.3,30.8z M51.8,31.8l-0.3-0.8l-0.1-0.3l0-0.1l0.1,0.1l0-0.1l0-0.1v0l0,0.1h0l0,0l0,0l0,0.1h0
		l0.1,0.2l0,0L51.8,31.8z M51.4,30.9l-0.1-0.1L51.4,30.9l0.2,0.3L51.4,30.9z M51.6,31.2l-0.2-0.3l-0.1-0.1l0.1,0.1l-0.1-0.1l0,0l0,0
		l0,0l0,0.1v0l0.1,0.1l0,0L51.6,31.2z M51.5,30.9l-0.1-0.1l-0.1-0.1l0,0L51.5,30.9z M51.3,30.7L51.3,30.7L51.3,30.7L51.3,30.7
		L51.3,30.7L51.3,30.7L51.3,30.7L51.3,30.7z M52.1,31.2l-0.6-0.4l-0.1-0.1l-0.1-0.1l0,0l-0.1-0.1h0l0.1,0l0.1,0.1l0,0l0.2,0.1l0,0
		l0.1,0.1l-0.1-0.1L52.1,31.2z M51.7,30.8l0.6,0.4L51.7,30.8l-0.2-0.1L51.7,30.8z M51.5,30.7L51.5,30.7l-0.1,0L51.5,30.7z
		 M51.4,30.7L51.4,30.7L51.4,30.7L51.4,30.7L51.4,30.7z M51.3,30.6L51.3,30.6L51.3,30.6L51.3,30.6L51.3,30.6z M51.3,30.6L51.3,30.6
		L51.3,30.6L51.3,30.6L51.3,30.6L51.3,30.6L51.3,30.6L51.3,30.6L51.3,30.6L51.3,30.6L51.3,30.6z M51.6,30.7L51.6,30.7L51.6,30.7
		l-0.1,0h0l-0.1,0l0,0l-0.1,0h0.1l0,0l0,0l0,0l0,0l0.1,0L51.6,30.7L51.6,30.7l-0.1-0.1h-0.1l0.1,0L51.6,30.7L51.6,30.7L51.6,30.7
		l0.4,0.1L51.6,30.7z M52.2,30.7L52.2,30.7l0.4,0.1L52.2,30.7l-0.4,0l-0.2,0l0.1,0h0l0,0L52.2,30.7z M51.6,30.6L51.6,30.6l1,0
		L51.6,30.6z"/>
	<g>
		<polygon class="st9" points="51.4,43.6 51.4,49.4 51.7,49.4 51.7,43.6 51.4,43.6 		"/>
		<rect x="51.4" y="10.5" class="st9" width="0.3" height="5.8"/>
		<polygon class="st9" points="59.6,44.3 61.1,46.8 61.4,46.7 59.9,44.1 59.6,44.3 		"/>
		<polygon class="st9" points="41.7,13.1 43.1,15.7 43.4,15.5 41.9,13 		"/>
		<polygon class="st9" points="65.7,38.3 68.3,39.8 68.4,39.5 65.9,38 65.7,38.3 		"/>
		<polygon class="st9" points="34.6,20.3 37.2,21.8 37.3,21.5 34.7,20.1 		"/>
		<rect x="65.2" y="29.8" class="st9" width="5.8" height="0.3"/>
		<rect x="32.1" y="29.8" class="st9" width="5.8" height="0.3"/>
		<polygon class="st9" points="65.9,21.8 68.4,20.3 68.3,20.1 65.7,21.5 		"/>
		<polygon class="st9" points="34.7,39.8 37.3,38.3 37.2,38 34.6,39.5 34.7,39.8 		"/>
		<polygon class="st9" points="59.9,15.7 61.4,13.1 61.1,13 59.6,15.5 		"/>
		<polygon class="st9" points="41.9,46.8 43.4,44.3 43.1,44.1 41.7,46.7 41.9,46.8 		"/>
		<polygon class="st9" points="51.4,49.4 51.7,49.4 51.7,43.6 51.4,43.6 51.4,49.4 		"/>
		<polygon class="st9" points="61.1,46.8 61.4,46.7 59.9,44.1 59.6,44.3 61.1,46.8 		"/>
		<polygon class="st9" points="68.3,39.8 68.4,39.5 65.9,38 65.7,38.3 68.3,39.8 		"/>
		<polygon class="st9" points="41.9,46.8 43.4,44.3 43.1,44.1 41.7,46.7 41.9,46.8 		"/>
		<polygon class="st9" points="51.7,30.4 38,22 37.9,22.2 51.6,30.5 		"/>
		<path class="st9" d="M52.4,30.3c0,0.4-0.4,0.8-0.8,0.8c-0.4,0-0.8-0.3-0.8-0.8c0-0.4,0.4-0.8,0.8-0.8C52,29.5,52.4,29.9,52.4,30.3
			z"/>
		<path class="st9" d="M57.7,18.5c0.1-0.1,0.3-0.2,0.4-0.1l0,0c0.2,0.1,0.2,0.3,0.1,0.4l-7.8,14.2c-0.1,0.1-0.3,0.2-0.4,0.1l0,0
			c-0.2-0.1-0.2-0.3-0.1-0.4L57.7,18.5z"/>
		<path class="st9" d="M40.6,37.2c-0.1,0.1-0.3,0.1-0.3,0l0,0c0-0.1,0-0.2,0.2-0.3l13.9-8.4c0.1-0.1,0.3-0.1,0.3,0l0,0
			c0,0.1,0,0.2-0.2,0.3L40.6,37.2z"/>
		<g class="st10">
			<g>
				<path class="st9" d="M51,19.8h-0.6v-2.1c-0.2,0.2-0.4,0.3-0.7,0.4v-0.5c0.1-0.1,0.3-0.1,0.5-0.3c0.2-0.1,0.3-0.3,0.4-0.5H51
					V19.8z"/>
				<path class="st9" d="M53.2,19.3v0.5h-1.9c0-0.2,0.1-0.4,0.2-0.6c0.1-0.2,0.3-0.4,0.6-0.7c0.3-0.2,0.4-0.4,0.5-0.5
					c0.1-0.1,0.1-0.2,0.1-0.3c0-0.1,0-0.2-0.1-0.3c-0.1-0.1-0.2-0.1-0.3-0.1c-0.1,0-0.2,0-0.3,0.1c-0.1,0.1-0.1,0.2-0.1,0.3
					l-0.6-0.1c0-0.3,0.1-0.5,0.3-0.6c0.2-0.1,0.4-0.2,0.6-0.2c0.3,0,0.5,0.1,0.7,0.2c0.2,0.2,0.2,0.3,0.2,0.6c0,0.1,0,0.3-0.1,0.4
					c0,0.1-0.1,0.2-0.2,0.4c-0.1,0.1-0.2,0.2-0.4,0.4c-0.2,0.2-0.3,0.3-0.3,0.3c0,0.1-0.1,0.1-0.1,0.2H53.2z"/>
			</g>
			<path class="st9" d="M63.3,30.7l0.5-0.1c0,0.1,0.1,0.2,0.1,0.3c0.1,0.1,0.2,0.1,0.3,0.1c0.1,0,0.2,0,0.3-0.1
				c0.1-0.1,0.1-0.2,0.1-0.3c0-0.1,0-0.3-0.1-0.3c-0.1-0.1-0.2-0.1-0.3-0.1c-0.1,0-0.2,0-0.3,0.1l0.1-0.5c0.2,0,0.3,0,0.3-0.1
				c0.1-0.1,0.1-0.2,0.1-0.3c0-0.1,0-0.2-0.1-0.2c-0.1-0.1-0.1-0.1-0.2-0.1c-0.1,0-0.2,0-0.2,0.1c-0.1,0.1-0.1,0.2-0.1,0.3l-0.5-0.1
				c0-0.2,0.1-0.3,0.2-0.4c0.1-0.1,0.2-0.2,0.3-0.2c0.1-0.1,0.3-0.1,0.4-0.1c0.3,0,0.5,0.1,0.7,0.3C65,29,65,29.1,65,29.3
				c0,0.3-0.1,0.5-0.4,0.6c0.2,0,0.3,0.1,0.4,0.2c0.1,0.1,0.1,0.3,0.1,0.4c0,0.3-0.1,0.5-0.3,0.7c-0.2,0.2-0.4,0.3-0.7,0.3
				c-0.3,0-0.5-0.1-0.7-0.2C63.4,31.2,63.3,31,63.3,30.7z"/>
			<path class="st9" d="M52.5,40.9L52,41c0-0.1,0-0.2-0.1-0.2c0-0.1-0.1-0.1-0.2-0.1c-0.1,0-0.2,0.1-0.3,0.2
				c-0.1,0.1-0.1,0.3-0.1,0.6c0.1-0.2,0.3-0.2,0.5-0.2c0.2,0,0.4,0.1,0.6,0.3c0.2,0.2,0.2,0.4,0.2,0.7c0,0.3-0.1,0.5-0.3,0.7
				c-0.2,0.2-0.4,0.3-0.7,0.3c-0.3,0-0.5-0.1-0.7-0.3c-0.2-0.2-0.3-0.6-0.3-1.1c0-0.5,0.1-0.9,0.3-1.1c0.2-0.2,0.4-0.4,0.7-0.4
				c0.2,0,0.4,0.1,0.5,0.2C52.4,40.5,52.5,40.7,52.5,40.9z M51.3,42.1c0,0.2,0,0.3,0.1,0.4c0.1,0.1,0.2,0.1,0.3,0.1
				c0.1,0,0.2,0,0.3-0.1c0.1-0.1,0.1-0.2,0.1-0.4s0-0.3-0.1-0.4c-0.1-0.1-0.2-0.1-0.3-0.1c-0.1,0-0.2,0-0.3,0.1
				C51.3,41.8,51.3,42,51.3,42.1z"/>
			<path class="st9" d="M38.1,30.5l0.5-0.1c0,0.1,0,0.2,0.1,0.2c0.1,0,0.1,0.1,0.2,0.1c0.1,0,0.2-0.1,0.3-0.2
				c0.1-0.1,0.1-0.3,0.2-0.7c-0.1,0.2-0.3,0.2-0.5,0.2c-0.2,0-0.4-0.1-0.6-0.3c-0.2-0.2-0.2-0.4-0.2-0.7c0-0.3,0.1-0.5,0.3-0.7
				c0.2-0.2,0.4-0.3,0.7-0.3c0.3,0,0.5,0.1,0.7,0.3c0.2,0.2,0.3,0.6,0.3,1.1c0,0.5-0.1,0.9-0.3,1.2c-0.2,0.2-0.4,0.3-0.8,0.3
				c-0.2,0-0.4-0.1-0.5-0.2C38.2,30.9,38.1,30.7,38.1,30.5z M39.3,29.3c0-0.2,0-0.3-0.1-0.4c-0.1-0.1-0.2-0.1-0.3-0.1
				c-0.1,0-0.2,0-0.2,0.1c-0.1,0.1-0.1,0.2-0.1,0.4c0,0.2,0,0.3,0.1,0.4c0.1,0.1,0.2,0.1,0.3,0.1c0.1,0,0.2,0,0.3-0.1
				C39.3,29.5,39.3,29.4,39.3,29.3z"/>
		</g>
	</g>
</g>
</svg>
