<?xml version="1.0" encoding="UTF-8"?><svg id="Layer_1" xmlns="http://www.w3.org/2000/svg" xmlns:xlink="http://www.w3.org/1999/xlink" viewBox="0 0 15.44 15.44"><defs><style>.cls-1{fill:#fff;}.cls-2{fill:url(#linear-gradient);}</style><linearGradient id="linear-gradient" x1="2.26" y1="2.26" x2="13.17" y2="13.17" gradientUnits="userSpaceOnUse"><stop offset="0" stop-color="#1677f1"/><stop offset=".18" stop-color="#176ee9"/><stop offset=".46" stop-color="#1d55d3"/><stop offset=".82" stop-color="#252eb0"/><stop offset="1" stop-color="#2b189c"/></linearGradient></defs><path class="cls-2" d="M15.44,7.72C15.44,3.46,11.98,0,7.72,0S0,3.46,0,7.72c0,3.85,2.82,7.04,6.51,7.62v-5.39h-1.96v-2.23h1.96v-1.7c0-1.93,1.15-3,2.92-3,.84,0,1.73,.15,1.73,.15v1.9h-.97c-.96,0-1.26,.59-1.26,1.21v1.45h2.14l-.34,2.23h-1.8v5.39c3.69-.58,6.51-3.77,6.51-7.62Z"/><path class="cls-1" d="M10.72,9.95l.34-2.23h-2.14v-1.45c0-.61,.3-1.21,1.26-1.21h.97v-1.9s-.88-.15-1.73-.15c-1.76,0-2.92,1.07-2.92,3v1.7h-1.96v2.23h1.96v5.39c.39,.06,.8,.09,1.21,.09s.81-.03,1.21-.09v-5.39h1.8Z"/></svg>