<?xml version="1.0" encoding="UTF-8"?><svg id="Layer_1" xmlns="http://www.w3.org/2000/svg" xmlns:xlink="http://www.w3.org/1999/xlink" viewBox="0 0 15.44 15.44"><defs><style>.cls-1{fill:#fff;}.cls-2{fill:url(#Degradado_sin_nombre_10);}</style><linearGradient id="Degradado_sin_nombre_10" x1="13.17" y1="2.26" x2="2.26" y2="13.17" gradientUnits="userSpaceOnUse"><stop offset="0" stop-color="#007bb8"/><stop offset="1" stop-color="#0044e9"/></linearGradient></defs><circle class="cls-2" cx="7.72" cy="7.72" r="7.72"/><path class="cls-1" d="M4.48,6.28h1.49v4.8h-1.49V6.28Zm.75-2.39c.48,0,.87,.39,.87,.86s-.39,.87-.87,.87-.87-.39-.87-.87,.39-.86,.87-.86"/><path class="cls-1" d="M6.91,6.28h1.43v.66h.02c.2-.38,.69-.78,1.41-.78,1.51,0,1.79,.99,1.79,2.29v2.63h-1.49v-2.33c0-.56-.01-1.27-.78-1.27s-.9,.61-.9,1.23v2.38h-1.49V6.28Z"/></svg>