<svg xmlns="http://www.w3.org/2000/svg" width="84" height="28" viewBox="0 0 84 28"><g><g><g><g><path fill="#406eb3" d="M13.294 7.081h-3.048c-.922 0-1.65-.727-1.65-1.65V2.385c0-.895.728-1.65 1.65-1.65h3.048c.896 0 1.65.727 1.65 1.65v3.048c0 .922-.727 1.65-1.65 1.65"/></g><g><path fill="#632678" d="M5.38 13.932H1.97a1.844 1.844 0 0 1-1.846-1.845v-3.44c0-1.007.838-1.845 1.846-1.845h3.439c1.034 0 1.845.838 1.845 1.846v3.44c0 1.034-.839 1.844-1.873 1.844"/></g><g><path fill="#982881" d="M5.073 21.063H2.976a1.122 1.122 0 0 1-1.119-1.119v-2.097c0-.615.503-1.119 1.119-1.119h2.097c.615 0 1.118.504 1.118 1.12v2.096c0 .615-.503 1.12-1.118 1.12"/></g><g><path fill="#ba2f7d" d="M10.694 27.69H8.205a1.342 1.342 0 0 1-1.342-1.342V23.86c0-.728.587-1.343 1.342-1.343h2.49c.725 0 1.341.587 1.341 1.343v2.488c0 .756-.588 1.343-1.342 1.343"/></g><g><path fill="#ba2f7d" d="M19.782 8.34h-1.706a.93.93 0 0 1-.923-.923V5.711a.93.93 0 0 1 .923-.922h1.706a.93.93 0 0 1 .923.922v1.706c.028.504-.392.922-.923.922"/></g><g><path fill="#26478d" d="M57.42 9.486a.973.973 0 0 0 .98-.978.973.973 0 0 0-.98-.979c-.56 0-1.007.447-1.007.979 0 .53.448.978 1.008.978z"/></g><g><path fill="#26478d" d="M21.263 20.057c-.139.223-.391.335-.67.335-.14 0-.336-.028-.448-.112-.224-.14-.363-.42-.363-.7 0-.138.027-.279.111-.39l2.294-3.607-2.294-3.608a.698.698 0 0 1-.11-.392.798.798 0 0 1 .81-.81c.279 0 .531.111.699.336l1.873 2.963 1.901-2.963c.14-.225.42-.337.7-.337a.799.799 0 0 1 .811.811c0 .14-.028.28-.112.392l-2.293 3.608 2.293 3.606a.643.643 0 0 1 .112.392c0 .28-.14.588-.364.699a.885.885 0 0 1-.448.112.799.799 0 0 1-.67-.335l-1.902-2.937z"/></g><g><path fill="#26478d" d="M36.028 15.555a3.27 3.27 0 0 1-3.3 3.299 3.27 3.27 0 0 1-3.299-3.3 3.27 3.27 0 0 1 3.3-3.3c1.873 0 3.327 1.455 3.3 3.3zm-6.57-4.084c0-.418-.364-.782-.812-.782-.42 0-.811.364-.811.782V23.44c0 .42.42.783.81.783.42 0 .812-.363.812-.783v-4.223a4.932 4.932 0 0 0 3.3 1.26c2.74 0 4.949-2.21 4.949-4.922 0-2.74-2.181-4.95-4.95-4.95a4.936 4.936 0 0 0-3.299 1.258z"/></g><g><path fill="#26478d" d="M51.716 14.66v4.949c0 .42-.392.783-.811.783-.447 0-.81-.363-.81-.783v-8.138c0-.418.39-.782.81-.782.391 0 .783.336.81.755a4.12 4.12 0 0 1 2.462-.811c.502 0 .894.392.894.811 0 .447-.392.839-.894.839-1.26.028-2.461.475-2.461 2.376z"/></g><g><path fill="#26478d" d="M57.42 10.69c-.447 0-.81.363-.81.781v8.166c0 .42.391.783.81.783.391 0 .811-.363.811-.783v-8.166c0-.418-.392-.782-.81-.782z"/></g><g><path fill="#26478d" d="M61.224 15.555a3.27 3.27 0 0 1 3.299-3.3 3.27 3.27 0 0 1 3.3 3.3 3.27 3.27 0 0 1-3.3 3.299 3.27 3.27 0 0 1-3.3-3.3zm6.599-3.664a4.989 4.989 0 0 0-3.3-1.258c-2.74 0-4.95 2.208-4.95 4.922 0 2.74 2.181 4.95 4.95 4.95a4.99 4.99 0 0 0 3.3-1.26v.392c0 .42.363.783.81.783.42 0 .811-.363.811-.783v-8.166c0-.418-.42-.782-.811-.782-.419 0-.81.364-.81.782z"/></g><g><path fill="#26478d" d="M77.75 14.771c0-1.37-1.175-2.545-2.545-2.545-1.315 0-2.545.532-2.545 2.461v4.95c0 .42-.391.783-.811.783-.448 0-.81-.363-.81-.783v-8.166c0-.418.39-.782.81-.782.392 0 .783.336.811.755.7-.532 1.566-.811 2.517-.811 2.209 0 4.195 1.734 4.195 3.915v5.089c0 .42-.392.783-.811.783-.448 0-.812-.363-.812-.783z"/></g><g><path fill="#26478d" d="M14.385 12.255c1.482 0 2.712.95 3.131 2.293h-6.291c.42-1.343 1.65-2.293 3.16-2.293zm4.921 3.02c-.028-2.517-2.265-4.642-4.921-4.642a4.917 4.917 0 0 0-4.95 4.922c0 2.768 2.21 4.95 4.95 4.95 1.314 0 2.545-.504 3.439-1.399a.846.846 0 0 0 .28-.616.83.83 0 0 0-.81-.81c-.253 0-.476.14-.644.336-.56.586-1.37.866-2.237.866-1.65 0-2.993-1.119-3.272-2.684h7.466c.028 0 .056 0 .084-.028.336-.14.615-.476.615-.895z"/></g><g><path fill="#26478d" d="M43.802 12.255c1.482 0 2.713.95 3.132 2.293h-6.292c.42-1.343 1.65-2.293 3.16-2.293zm4.922 3.02c-.028-2.517-2.294-4.642-4.922-4.642a4.917 4.917 0 0 0-4.95 4.922 4.923 4.923 0 0 0 4.95 4.95 4.843 4.843 0 0 0 3.44-1.399.85.85 0 0 0 .28-.616.83.83 0 0 0-.812-.81c-.252 0-.475.14-.643.336-.559.586-1.37.866-2.237.866-1.65 0-2.992-1.119-3.272-2.684h7.522c.336-.14.644-.504.644-.923z"/></g><g><path fill="#26478d" d="M81.106 20.42c-.085 0-.14-.056-.14-.14v-1.37h-.308c-.084 0-.14-.056-.14-.14 0-.083.056-.14.14-.14h.894c.084 0 .14.057.14.14 0 .084-.056.14-.14.14h-.307v1.37c0 .084-.056.14-.14.14z"/></g><g><path fill="#26478d" d="M82.699 20.42c-.084 0-.112-.056-.14-.112l-.39-1.119v1.091c0 .084-.057.14-.141.14-.084 0-.14-.056-.14-.14v-1.454c0-.111.084-.196.196-.196a.21.21 0 0 1 .195.14l.392 1.146.392-1.145a.21.21 0 0 1 .195-.14c.112 0 .196.084.196.195v1.454c0 .084-.056.14-.14.14-.083 0-.14-.056-.14-.14v-1.09c-.055.168-.14.447-.224.67-.139.448-.167.448-.167.448.028.084-.028.112-.084.112z"/></g></g></g></g></svg>