<svg xmlns="http://www.w3.org/2000/svg" width="93" height="28" viewBox="0 0 93 28"><g><g><path fill="#b32541" d="M21.217 10.457l.54-2.532H10.564L9.082 14.89 7.824 20.5h11.505l.585-2.67h-6.382l.584-2.714h5.393l.584-2.532H14.7l.45-2.127z"/><path fill="none" stroke="#b32541" stroke-miterlimit="20" stroke-width=".62" d="M21.217 10.457v0l.54-2.532v0H10.564v0L9.082 14.89v0L7.824 20.5v0h11.505v0l.585-2.67v0h-6.382v0l.584-2.714v0h5.393v0l.584-2.532v0H14.7v0l.45-2.127v0z"/></g><g><path fill="#b32541" d="M51.599 8.626l-1.214 5.563-1.213 5.61h4.584l2.472-11.173z"/></g><g><path fill="#b32541" d="M67.463 10.842l.54-2.216H57.98l-2.427 11.173h4.63l1.033-4.796h4.54l.18-.814.269-1.266H61.71l.449-2.08z"/></g><g><path fill="#b32541" d="M36.857 8.373h4.674l-1.752 7.916c-.215.967.688 1.472 1.462 1.54.995.085 1.889-.54 2.133-1.585l1.842-7.87h4.63l-1.843 8.367c-.789 2.182-2.617 3.04-4.635 3.253-1.25.133-2.575.02-3.77-.178l-4.134-4.975z"/></g><g><path fill="#b32541" d="M69.666 14.959l2.516-3.8.45 3.8zm8.179-6.333l3.64 5.609-3.73 3.437-1.078-9.046h-5.618l-7.82 11.172h3.236l1.663-2.443h4.764l.27 2.443h6.876l3.235-3.392 1.888 3.392h5.753l-3.865-5.971 5.887-5.201h-4.495l-2.92 2.895-1.798-2.895z"/></g></g></svg>