<svg xmlns="http://www.w3.org/2000/svg" width="57" height="17" viewBox="0 0 57 17"><g><g><g><path fill="#00a2d1" d="M8.343.302c3.032 0 6.173 1.682 6.992 5.177h-2.477c-.776-1.923-2.5-2.809-4.536-2.831-3.164 0-5.268 2.3-5.268 5.599 0 3.073 2.104 5.528 5.268 5.528 2.125 0 3.916-1.038 4.602-3.097h2.5c-.775 3.784-3.96 5.444-7.102 5.444-4.204 0-7.855-2.899-7.855-7.875C.467 3.245 4.118.302 8.343.302"/></g><g><path fill="#00a2d1" d="M23.518 13.888v2.079h-7.477v-2.079h2.456V2.538H16.24V.478h7.08v2.06h-2.257v11.35z"/></g><g><path fill="#00a2d1" d="M31.66 9.085c.709 0 1.415.046 2.014.489.53.44.796 1.061.796 1.835-.068 1.483-1.085 2.3-2.52 2.3h-4.207V9.085zm-.377-6.371c1.504 0 2.524.663 2.524 2.19-.024 1.505-1.04 2.08-2.524 2.08h-3.54v-4.27zm3.23 5.111c1.617.554 2.5 1.837 2.5 3.584 0 2.767-1.902 4.558-4.91 4.558h-6.926V.48h6.283c2.81 0 4.867 1.438 4.867 4.36 0 1.303-.596 2.387-1.814 2.985"/></g><g><path fill="#00a2d1" d="M45.529 13.888v2.079H38.05v-2.079h2.456V2.538H38.25V.478h7.08v2.06h-2.258v11.35z"/></g><g><path fill="#00a2d1" d="M49.776 13.643h6.66v2.324h-9.248V.478h2.588z"/></g></g></g></svg>