<?xml version="1.0" encoding="UTF-8"?><svg id="Layer_1" xmlns="http://www.w3.org/2000/svg" viewBox="0 0 100 100"><path d="M33.52,67.62c-.32-.14-.67-.24-.96-.43-.75-.5-1.09-1.23-1.09-2.12,0-7.2,0-14.39,0-21.59,0-.56,.21-.87,.63-.97,.44-.1,.84,.12,.96,.55,.05,.18,.05,.38,.05,.57,0,7.06,0,14.12,0,21.18,0,.95,.24,1.19,1.19,1.19,9.7,0,19.4,0,29.09,0,.95,0,1.19-.24,1.19-1.18,0-12.08,0-24.15,0-36.23,0-.95-.24-1.19-1.18-1.19-5.29,0-10.57,0-15.86,0-.15,0-.3,0-.45-.02-.44-.07-.72-.39-.72-.81,0-.42,.29-.73,.73-.8,.12-.02,.25-.01,.37-.01,5.35,0,10.71,0,16.06,0,1.66,0,2.68,1.02,2.68,2.68,0,12.17,0,24.34,0,36.52,0,1.39-.51,2.05-2.05,2.68h-30.65Z"/><path d="M41.77,45.84c1.02-1.7,2.43-2.85,4.23-3.55-.25-.38-.51-.71-.7-1.07-.8-1.52-.72-4.4,1.12-5.8,2.12-1.61,5.43-.65,6.2,1.9,.44,1.45,.41,2.88-.39,4.22-.15,.25-.35,.48-.55,.75,1.81,.71,3.22,1.86,4.24,3.54,.59-.66,1.03-1.37,1.37-2.13,2.35-5.38-.59-11.35-6.29-12.77-1.03-.26-2.07-.34-3.13-.2-.19,.02-.38,.03-.57,.03-.42-.01-.73-.29-.79-.69-.05-.38,.18-.77,.58-.87,.33-.08,.67-.12,1.01-.15,5.1-.4,9.99,3.08,11.26,8.02,1.28,4.95-.83,9.89-5.28,12.38-4.29,2.4-9.93,1.47-13.24-2.17-1.4-1.54-2.3-3.33-2.71-5.36-.12-.58,.12-1.02,.61-1.11,.5-.09,.89,.19,1,.78,.29,1.59,.97,2.99,2.03,4.28Zm1.22,1.17c3.35,2.89,8.65,2.73,11.71-.03-1.29-2.31-3.25-3.58-5.9-3.56-2.62,.02-4.54,1.3-5.8,3.58Zm8.23-7.99c0-.15,0-.3,0-.45-.05-1.32-1.07-2.33-2.36-2.35-1.29-.02-2.34,1.02-2.39,2.36-.01,.33-.02,.65,.01,.98,.12,1.48,1.51,2.48,2.93,2.13,1.17-.3,1.81-1.23,1.8-2.67Z"/><path d="M38.18,39.15c-3.7-.01-6.72-3.05-6.7-6.73,.02-3.69,3.07-6.7,6.76-6.68,3.69,.03,6.69,3.04,6.68,6.71,0,3.69-3.04,6.71-6.74,6.7Zm.02-11.78c-2.79,0-5.08,2.28-5.09,5.06,0,2.79,2.28,5.07,5.08,5.07,2.79,0,5.08-2.28,5.09-5.06,0-2.79-2.28-5.07-5.08-5.07Z"/><path d="M50.57,55.35c-1.82,0-3.63,0-5.45,0-.12,0-.25,0-.37,0-.46-.05-.77-.38-.78-.8,0-.44,.32-.78,.8-.82,.07,0,.14,0,.2,0,3.74,0,7.48,0,11.23,0,.07,0,.14,0,.2,0,.49,.04,.81,.36,.81,.8,0,.47-.32,.81-.83,.82-.6,.02-1.2,0-1.8,0-1.34,0-2.68,0-4.02,0Z"/><path d="M50.61,59.93c-1.84,0-3.69,0-5.53,0-.14,0-.27,0-.41-.02-.41-.07-.7-.39-.7-.79,0-.4,.29-.75,.72-.81,.13-.02,.27-.02,.41-.02,3.66,0,7.32,0,10.98,0,.11,0,.22,0,.33,0,.49,.04,.81,.35,.82,.8,0,.47-.32,.8-.83,.82-.4,.02-.79,0-1.19,0-1.53,0-3.06,0-4.59,0Z"/><path d="M41.27,53.72c.43,0,.81,.37,.82,.8,0,.44-.36,.81-.8,.82-.43,0-.81-.36-.81-.8,0-.44,.36-.82,.79-.82Z"/><path d="M41.3,58.3c.44,0,.8,.39,.79,.83,0,.44-.39,.81-.82,.8-.44,0-.79-.39-.79-.83,0-.44,.38-.81,.82-.8Z"/><path d="M32.28,41.03c-.43,0-.81-.4-.8-.82,0-.43,.4-.81,.82-.8,.43,0,.81,.4,.8,.82,0,.43-.4,.81-.82,.8Z"/><path d="M37.27,33.14c.86-.86,1.66-1.67,2.46-2.47,.12-.12,.26-.25,.41-.34,.31-.19,.73-.13,.98,.13,.25,.28,.3,.6,.12,.94-.07,.13-.17,.25-.28,.35-.97,.98-1.95,1.95-2.93,2.92-.55,.55-.95,.54-1.51-.01-.41-.4-.82-.8-1.22-1.22-.4-.41-.43-.89-.1-1.23,.35-.36,.83-.33,1.26,.09,.26,.26,.51,.53,.8,.83Z"/></svg>