<?xml version="1.0" encoding="UTF-8"?><svg id="Layer_1" xmlns="http://www.w3.org/2000/svg" viewBox="0 0 100 100"><path d="M45.28,58.09c-.53-.15-.87-.52-1.16-.97-2.36-3.58-4.72-7.16-7.08-10.74-1.02-1.54-1.75-3.21-2.09-5.04-.29-1.54-.16-3.05,.27-4.54,.64-2.21,1.88-4.02,3.68-5.45,1.33-1.06,2.83-1.77,4.51-2.08,3.71-.68,6.95,.29,9.66,2.91,1.71,1.65,2.71,3.7,3.06,6.06,.37,2.5-.21,4.82-1.45,6.96-.96,1.67-2.06,3.25-3.12,4.86-1.54,2.35-3.1,4.7-4.65,7.05-.29,.45-.64,.81-1.16,.97h-.45Zm.23-1.2c.12-.16,.2-.27,.28-.39,1.29-1.95,2.59-3.91,3.87-5.86,1.3-1.98,2.61-3.96,3.86-5.97,.8-1.29,1.27-2.72,1.4-4.24,.21-2.51-.52-4.76-2.14-6.67-2.24-2.64-5.13-3.75-8.58-3.33-1.53,.19-2.92,.76-4.17,1.66-1.69,1.21-2.87,2.81-3.51,4.78-.41,1.26-.58,2.56-.39,3.88,.25,1.79,.96,3.41,1.94,4.91,2.39,3.64,4.79,7.27,7.19,10.9,.07,.1,.14,.19,.25,.33Z"/><path d="M45.52,45.45c-3.13,0-5.68-2.53-5.68-5.67,0-3.13,2.55-5.68,5.68-5.68,3.12,0,5.66,2.54,5.67,5.66,0,3.13-2.53,5.68-5.66,5.69Zm.03-10.09c-2.39-.04-4.4,1.93-4.45,4.36-.05,2.4,1.92,4.43,4.34,4.47,2.44,.04,4.46-1.92,4.49-4.37,.04-2.41-1.93-4.42-4.38-4.46Z"/></svg>