<?xml version="1.0" encoding="UTF-8"?><svg id="Layer_1" xmlns="http://www.w3.org/2000/svg" viewBox="0 0 100 100"><path d="M23.13,33.61c.06-.18,.12-.36,.18-.54,.53-1.82,2.17-3.12,4.06-3.15,1.98-.03,3.96-.01,5.94,0,.71,0,1.21,.34,1.44,1.03,.98,2.9,1.95,5.81,2.92,8.72,.17,.51,.05,.96-.24,1.38-.73,1.09-1.45,2.19-2.2,3.28-.17,.25-.17,.43-.03,.7,1.51,2.82,3.59,5.18,6.05,7.19,1.26,1.03,2.69,1.86,4.04,2.78,.24,.17,.42,.11,.65-.04,1.07-.73,2.16-1.44,3.24-2.17,.51-.35,1.02-.42,1.61-.22,2.8,.94,5.6,1.87,8.39,2.81,.85,.28,1.18,.74,1.18,1.63,0,1.85,0,3.7,0,5.56-.01,2.62-1.93,4.52-4.54,4.5-5.45-.06-10.51-1.57-15.18-4.32-7.63-4.51-13.06-10.89-15.98-19.31-.8-2.29-1.27-4.66-1.45-7.09-.01-.16-.06-.31-.08-.47v-2.24Zm6.62-.78c-.68,0-1.36,0-2.05,0-1.09,0-1.66,.57-1.65,1.65,.02,2.8,.49,5.53,1.42,8.16,2.75,7.75,7.79,13.59,14.86,17.69,4.16,2.41,8.65,3.73,13.48,3.79,1.02,.01,1.61-.58,1.61-1.59,0-1.41,0-2.83,0-4.24,0-.3-.07-.46-.38-.56-2.13-.69-4.24-1.41-6.37-2.1-.18-.06-.45-.02-.61,.08-.88,.55-1.8,1.06-2.59,1.73-1.14,.97-2.2,.89-3.46,.21-2.92-1.58-5.43-3.66-7.67-6.08-1.73-1.88-3.24-3.93-4.27-6.3-.27-.63-.22-1.18,.16-1.74,.75-1.1,1.49-2.21,2.21-3.33,.1-.15,.16-.41,.11-.57-.71-2.17-1.43-4.34-2.18-6.5-.04-.13-.26-.28-.4-.28-.75-.03-1.49-.01-2.24-.01Z"/><path d="M49.54,43.55c-1.33-.22-2.55-.64-3.69-1.3-3.68-2.15-5.71-6.46-4.95-10.52,.83-4.44,4.17-7.75,8.52-8.43,.48-.07,.97-.11,1.45-.11,3.98,0,7.96-.03,11.94,0,4.95,.03,9.12,3.55,10.04,8.42,.99,5.26-2.45,10.53-7.71,11.73-.83,.19-1.7,.27-2.55,.29-1.56,.05-3.12,.02-4.68,0-.34,0-.57,.1-.8,.34-1.63,1.65-3.28,3.29-4.92,4.93-.44,.44-.93,.7-1.57,.53-.68-.19-1.08-.73-1.08-1.49,0-1.44,0-2.89,0-4.39Zm2.92,.96c1.13-1.13,2.15-2.15,3.16-3.18,.41-.42,.88-.62,1.47-.62,1.95,.02,3.9,.03,5.85,0,3.87-.07,7.1-3.3,7.16-7.14,.07-4.09-3.21-7.45-7.31-7.47-3.93-.02-7.86-.02-11.79,0-4.02,.01-7.28,3.24-7.31,7.21-.03,4.03,3.14,7.3,7.17,7.4,1.02,.02,1.59,.6,1.6,1.62,0,.68,0,1.35,0,2.17Z"/><path d="M52.46,33.4c0,.79-.64,1.46-1.43,1.48-.81,.02-1.49-.66-1.49-1.47,0-.79,.67-1.45,1.45-1.45,.79,0,1.46,.65,1.47,1.44Z"/><path d="M55.39,33.38c.02-.79,.7-1.44,1.49-1.42,.79,.02,1.44,.69,1.43,1.48,0,.81-.71,1.47-1.51,1.44-.79-.03-1.43-.71-1.41-1.5Z"/><path d="M64.16,33.4c0,.79-.64,1.46-1.43,1.48-.81,.02-1.49-.66-1.49-1.47,0-.79,.66-1.45,1.45-1.45,.79,0,1.46,.65,1.47,1.44Z"/></svg>