<?xml version="1.0" encoding="UTF-8"?><svg id="Layer_1" xmlns="http://www.w3.org/2000/svg" viewBox="0 0 100 100"><path d="M44.84,23h2.63c.12,.03,.25,.07,.37,.09,1.1,.19,2.22,.3,3.3,.58,12.48,3.2,18.74,17.33,12.73,28.72-.55,1.04-1.22,2.02-1.9,3.13,.1,.08,.28,.18,.41,.32,4.06,4.05,8.11,8.11,12.17,12.16,.56,.56,1.11,1.13,1.38,1.9v.97c-.22,.6-.48,1.16-1.02,1.56-1.06,.77-2.37,.63-3.39-.39-4.24-4.24-8.47-8.47-12.71-12.71-.12-.12-.19-.3-.29-.45-.3,.22-.47,.35-.64,.47-5.4,3.76-11.29,4.85-17.59,2.94-9.97-3.02-15.79-12.77-13.9-23.02,1.44-7.76,7.69-14.17,15.41-15.77,1-.21,2.01-.32,3.02-.48Zm16.36,20.11c.02-8.31-6.74-15.1-15.07-15.12-8.3-.02-15.11,6.75-15.13,15.06-.02,8.29,6.75,15.09,15.07,15.12,8.3,.04,15.1-6.74,15.13-15.06Z"/></svg>