<?xml version="1.0" encoding="UTF-8"?><svg id="Layer_1" xmlns="http://www.w3.org/2000/svg" viewBox="0 0 100 100"><path d="M62.43,38.49c-.15,.49-.41,.88-.92,1.09,.18,.44,.23,.89,0,1.32-.23,.43-.6,.68-1.09,.79,.02,.08,.04,.15,.05,.22,.12,.49,.02,.93-.32,1.3-.12,.13-.16,.25-.08,.4,.18,.35,.33,.71,.54,1.03,.23,.36,.52,.68,.79,1.02,.39,.49,.57,1.04,.57,1.67,0,2.54,0,5.07,0,7.61,0,1.13-.84,1.77-1.93,1.49-.03,0-.05,0-.08-.01-.35,1.19-1.31,1.43-2.11,1.09-.25,.48-.62,.83-1.19,.89-.56,.06-1-.16-1.36-.61-.61,.33-1.2,.35-1.75-.11-.55-.45-.54-1.08-.5-1.74-.12,0-.22-.01-.32-.01-2.12,0-4.24,0-6.35,0-.22,0-.33,.06-.39,.27-.29,1.09-1.02,1.62-2.13,1.7-.39,.03-.77,.14-1.15,.23-.08,.02-.16,.14-.18,.22-.03,.15,0,.3-.01,.46-.02,.23-.15,.37-.38,.39-.24,.02-.4-.11-.46-.34-.02-.1-.02-.21-.02-.31,0-.86,0-1.71,0-2.59h-5.18c0,.29,0,.56,0,.83,0,.63,0,1.26,0,1.89,0,.34-.16,.53-.43,.53-.27,0-.42-.18-.42-.53,0-.8,0-1.6,0-2.4,0-.1,0-.21,0-.33-.18,0-.32,0-.46,0-1.18,.09-2.1-1.07-1.42-2.25-.89-.72-.84-2,.29-2.57-.18-.43-.22-.88,0-1.31,.23-.43,.6-.67,1.02-.77,0-.32-.02-.61,0-.89,.02-.17,.09-.38,.21-.49,.35-.3,.24-.62,.06-.91-.29-.49-.6-.97-.97-1.41-.57-.68-.86-1.42-.8-2.31,.03-.44,0-.88,0-1.32,0-.31,.16-.51,.42-.51,.26,0,.44,.2,.44,.52,0,.55,0,1.11,0,1.66,0,.43,.13,.8,.39,1.14,.21,.27,.42,.54,.64,.81,.36,.45,.65,.94,.83,1.49,.03,.08,.15,.18,.22,.18,1.66,0,3.32,0,4.98,0,.05,0,.09-.01,.16-.03,0-.56,0-1.11,0-1.66,0-.61,0-.62,.58-.86,.27-.12,.56-.2,.81-.36,.17-.11,.37-.28,.42-.46,.17-.62,.27-1.26,.4-1.92h-1.35c0,.29,0,.57,0,.84,0,.35-.14,.53-.42,.53-.28,0-.44-.19-.44-.55,0-.07,0-.13,0-.2v-7.84c0-.07,0-.13,0-.2,0-.47-.22-.77-.58-.77-.36,0-.58,.28-.58,.76,0,1.82,0,3.64,0,5.47,0,.11,.02,.26-.04,.33-.11,.12-.27,.25-.42,.27-.2,.03-.35-.13-.39-.35-.02-.09,0-.19,0-.29,0-1.96,0-3.91,0-5.87,0-.44-.21-.7-.57-.7-.3,0-.53,.19-.58,.49-.02,.11-.01,.23-.01,.34,0,1.9,0,3.8,0,5.69,0,.1,0,.21-.01,.31-.04,.24-.19,.38-.43,.38-.24,0-.39-.15-.41-.4,0-.09,0-.19,0-.29,0-1.64,0-3.28,0-4.92,0-.11,0-.23-.01-.34-.04-.29-.26-.49-.53-.51-.26-.02-.5,.14-.58,.42-.04,.13-.04,.26-.04,.39,0,1.66,0,3.32,0,4.98,0,.1,0,.19,0,.29-.03,.23-.17,.36-.4,.38-.21,.01-.37-.1-.43-.31-.03-.1-.03-.21-.03-.31,0-1.3,0-2.59,0-3.89,0-.09,0-.17,0-.26-.02-.31-.25-.54-.55-.55-.29,0-.55,.21-.59,.51-.01,.09,0,.19,0,.29,0,1.22,0,2.44,0,3.66,0,.09,0,.17,0,.26-.03,.24-.22,.4-.45,.38-.25-.02-.38-.16-.4-.41,0-.08,0-.15,0-.23,0-1.21,.05-2.43-.01-3.63-.05-.99,.74-2,2.04-1.6,.11-.46,.34-.84,.77-1.07,.43-.23,.88-.22,1.31-.02,.63-1.15,1.88-1.16,2.59-.29,.61-.33,1.2-.34,1.75,.13,.54,.46,.52,1.09,.49,1.74,.13,0,.23,0,.33,0,.93,0,1.87,0,2.8,0,.21,0,.4,.06,.46,.26,.04,.13,.02,.33-.06,.42-.09,.1-.28,.17-.42,.17-.93,.01-1.85,0-2.78,0-.1,0-.2,0-.32,0v5.2c.12,0,.22,0,.32,0,1.23,0,2.46,.01,3.69,0,1.06-.01,1.98,.31,2.8,.98,.05,.04,.11,.08,.16,.12,1.29,1.02,1.06,.94,2.75,.94,2.17,0,4.35,0,6.52,0,.11,0,.23,0,.34-.01,.32-.04,.56-.3,.54-.59-.01-.3-.26-.54-.59-.56-.22-.01-.44,0-.66,0-1.17,0-2.35,0-3.52,0-.37,0-.55-.15-.55-.43,0-.28,.19-.43,.56-.43,1.66,0,3.32,0,4.98,0,.09,0,.17,0,.26,0,.39-.01,.68-.26,.67-.6,0-.33-.27-.56-.66-.56-1.72,0-3.43,0-5.15,0-.11,0-.23,0-.34-.03-.22-.06-.33-.23-.3-.46,.03-.22,.16-.34,.38-.37,.08,0,.17,0,.26,0,1.92,0,3.83,0,5.75,0,.1,0,.19,0,.29,0,.33-.04,.55-.29,.54-.6,0-.3-.23-.52-.55-.56-.1-.01-.21,0-.31,0-1.9,0-3.8,0-5.69,0-.11,0-.23,0-.34-.02-.2-.04-.31-.18-.32-.39,0-.22,.09-.37,.31-.42,.11-.03,.23-.03,.34-.03,1.74,0,3.47,0,5.21,0,.08,0,.15,0,.23,0,.49,0,.75-.21,.74-.59,0-.36-.28-.57-.74-.57-2.58,0-5.15,0-7.73,0-.1,0-.19,0-.29,0-.25-.02-.42-.18-.42-.42,0-.23,.15-.41,.4-.43,.1-.01,.21,0,.31,0,.09,0,.19,0,.29,0v-1.34c-.47,.09-.93,.18-1.38,.27-.1,.02-.2,.05-.31,.06-.39,.05-.64,.25-.77,.63-.11,.3-.26,.59-.38,.89-.1,.24-.26,.36-.52,.35-.65,0-1.3,0-1.95,0-.32,0-.5-.15-.51-.41,0-.28,.18-.44,.51-.44,.52,0,1.03,0,1.55,0,.16,0,.24-.05,.29-.2,.07-.21,.17-.4,.25-.61,.24-.59,.67-.93,1.29-1.04,.64-.12,1.27-.25,1.94-.39,0-.19,0-.37,0-.54,0-.31,.17-.5,.43-.5,.26,0,.43,.19,.43,.5,0,.79,0,1.58,0,2.38,0,.11,0,.23,0,.37h5.17c0-.1,.01-.2,.01-.3,0-.75,0-1.51,0-2.26,0-.08,0-.15,0-.23,.02-.29,.19-.46,.44-.46,.24,0,.4,.18,.41,.46,0,.76,0,1.53,0,2.29,0,.16,0,.32,0,.52,.19,0,.36,0,.53,0,1.16-.05,2.01,1.13,1.38,2.18l.58,1.02v.52Zm-9.39,11.4c-.15,0-.25,0-.36,0-1.25,0-2.5,0-3.75,0-.73,0-1.43-.14-2.05-.52-.49-.31-.95-.66-1.4-1.03-.41-.34-.86-.49-1.39-.49-2.45,0-4.9,0-7.35,0-.12,0-.25,0-.37,.02-.26,.05-.46,.29-.47,.54-.01,.26,.17,.5,.43,.57,.11,.03,.23,.03,.34,.03,1.3,0,2.59,0,3.89,0,.09,0,.17,0,.26,0,.24,.03,.38,.16,.39,.41,0,.25-.13,.39-.37,.44-.08,.02-.17,0-.26,0-1.67,0-3.34,0-5.01,0-.1,0-.21,0-.31,0-.3,.05-.53,.32-.51,.6,.02,.29,.25,.52,.56,.54,.09,0,.17,0,.26,0,1.67,0,3.34,0,5.01,0,.11,0,.23,0,.34,.03,.21,.06,.31,.22,.29,.44-.02,.22-.15,.35-.36,.38-.09,.01-.19,0-.29,0-1.92,0-3.83,0-5.75,0-.53,0-.81,.21-.81,.59,0,.38,.28,.58,.82,.58,1.92,0,3.83,0,5.75,0,.46,0,.64,.12,.65,.42,0,.31-.19,.44-.66,.44-1.78,0-3.57,0-5.35,0-.55,0-.82,.19-.82,.57,0,.38,.28,.59,.81,.59,.24,0,.48,0,.72,0,2.3,0,4.6,0,6.9,0,.46,0,.67,.14,.67,.43,0,.29-.21,.42-.65,.42-.09,0-.18,.01-.27,.02v1.33c.62-.12,1.22-.25,1.82-.36,.28-.05,.47-.2,.58-.46,.13-.32,.29-.62,.4-.95,.12-.33,.32-.44,.67-.44,2.22,.01,4.44,0,6.67,0h.35c0-.13,.01-.22,.01-.31,0-.62,0-1.24,0-1.86,0-.4,.13-.59,.42-.59,.29,0,.44,.2,.44,.61,0,.61,0,1.22,0,1.83,0,.61,0,1.22,0,1.83,0,.33,.24,.58,.54,.6,.26,.02,.53-.18,.59-.44,.02-.1,.02-.21,.02-.31,0-1.81,0-3.62,0-5.44,0-.09,0-.17,0-.26,.03-.24,.23-.42,.45-.39,.24,.03,.38,.16,.4,.41,0,.09,0,.17,0,.26,0,1.34,0,2.67,0,4.01,0,.63,0,1.26,0,1.89,0,.34,.16,.57,.42,.64,.38,.1,.72-.15,.73-.57,.01-.53,0-1.07,0-1.6,0-1.49,0-2.98,0-4.46,0-.36,.17-.56,.43-.56,.27,0,.42,.2,.42,.56,0,.49,0,.97,0,1.46,0,1.26,0,2.52,0,3.78,0,.4,.23,.65,.56,.66,.34,0,.59-.26,.6-.66,0-.08,0-.15,0-.23,0-1.64,0-3.28,0-4.92,0-.1,0-.19,0-.29,.03-.22,.18-.37,.38-.35,.15,.02,.31,.15,.42,.27,.06,.07,.05,.22,.05,.33,0,1.35,0,2.71,0,4.06,0,.39,.23,.64,.57,.64,.33,0,.57-.26,.58-.65,0-.09,0-.17,0-.26,0-2.13,0-4.25,0-6.38,0-1.87,.12-1.49-1.03-3.01-.33-.43-.56-.94-.8-1.44-.08-.16-.14-.23-.32-.23-1.55,0-3.11,0-4.66,.01-.13,0-.26,.01-.4,.02,0,.66,0,1.28,0,1.89,0,.27-.1,.45-.36,.55-.35,.14-.69,.27-1.02,.45-.17,.09-.37,.24-.41,.4-.17,.65-.29,1.31-.42,1.97h1.35c0-.32,0-.61,0-.91,0-.28,.16-.45,.4-.46,.26,0,.45,.16,.45,.45,0,.92,0,1.83,0,2.75,0,.27-.19,.44-.43,.45-.25,0-.42-.18-.43-.47,0-.29,0-.59,0-.92Zm-2.23-.87c.14-.69,.27-1.36,.41-2.03,.11-.52,.4-.9,.89-1.12,.25-.12,.51-.22,.76-.33,.07-.03,.16-.1,.17-.16,.01-.54,0-1.08,0-1.65-.56,0-1.08,0-1.6,0-.7,.01-1.31-.19-1.85-.64-.28-.23-.57-.45-.85-.67-.41-.32-.86-.6-1.38-.64-.86-.07-1.73-.07-2.59-.11-.15,.73-.28,1.4-.42,2.07-.11,.52-.4,.9-.89,1.12-.25,.12-.51,.22-.76,.34-.07,.03-.16,.1-.17,.16-.01,.54,0,1.08,0,1.65,.56,0,1.08,0,1.6,0,.7-.01,1.31,.19,1.85,.64,.33,.27,.67,.54,1.02,.79,.46,.34,.99,.56,1.56,.59,.74,.03,1.49,0,2.26,0Z"/></svg>