<?xml version="1.0" encoding="UTF-8"?><svg id="Layer_1" xmlns="http://www.w3.org/2000/svg" xmlns:xlink="http://www.w3.org/1999/xlink" viewBox="0 0 42.58 42.58"><defs><style>.cls-1{fill:#31c262;}.cls-2{fill:#f0fff4;stroke:url(#linear-gradient);stroke-miterlimit:10;stroke-width:.75px;}</style><linearGradient id="linear-gradient" x1="0" y1="21.29" x2="42.58" y2="21.29" gradientUnits="userSpaceOnUse"><stop offset="0" stop-color="#20bf55"/><stop offset="1" stop-color="#01baef"/></linearGradient></defs><circle class="cls-2" cx="21.29" cy="21.29" r="20.91"/><path class="cls-1" d="M12.33,22.19c-.91,0-1.79,0-2.66,0-.7,0-1.12-.7-.82-1.3,.05-.11,.13-.2,.22-.29,3.85-3.85,7.69-7.69,11.54-11.54,.43-.43,.93-.43,1.36,0,3.85,3.85,7.71,7.7,11.56,11.56,.29,.29,.4,.63,.23,1.02-.16,.38-.47,.56-.89,.56h-2.62v8.75c0,1.76-1.12,2.89-2.88,2.89h-3.27c-.66,0-1.01-.36-1.01-1.02v-5.09c0-.71-.34-1.05-1.05-1.05h-1.57c-.61,0-.97,.37-.97,.98v5.15c0,.69-.35,1.03-1.03,1.03h-3.3c-1.68,0-2.83-1.15-2.83-2.82v-8.82h0Z"/></svg>