<?xml version="1.0" encoding="UTF-8"?><svg id="Layer_1" xmlns="http://www.w3.org/2000/svg" xmlns:xlink="http://www.w3.org/1999/xlink" viewBox="0 0 42.58 42.58"><defs><style>.cls-1{fill:#31c262;}.cls-2{fill:#f0fff4;stroke:url(#linear-gradient);stroke-miterlimit:10;stroke-width:.75px;}</style><linearGradient id="linear-gradient" x1="0" y1="21.29" x2="42.58" y2="21.29" gradientUnits="userSpaceOnUse"><stop offset="0" stop-color="#20bf55"/><stop offset="1" stop-color="#01baef"/></linearGradient></defs><circle class="cls-2" cx="21.29" cy="21.29" r="20.91"/><g><path class="cls-1" d="M11.14,22.82c.09,.1,.14,.15,.19,.2,3.11,3.09,6.22,6.19,9.33,9.28,.43,.43,.82,.43,1.25,0,3.1-3.09,6.2-6.17,9.31-9.26,.06-.06,.11-.13,.2-.23h-.31c-1.66,0-3.32,0-4.97,0-.41,0-.67-.16-.86-.52-.61-1.15-1.22-2.29-1.84-3.43-.04-.08-.09-.15-.15-.25-.05,.11-.09,.19-.13,.27-.9,1.91-1.81,3.81-2.71,5.73-.14,.3-.34,.52-.69,.54-.34,.02-.55-.17-.73-.45-.62-1-1.26-1.98-1.89-2.98-.04-.06-.09-.13-.15-.21-.16,.28-.33,.52-.47,.78-.19,.36-.48,.52-.89,.51-1.26-.01-2.52,0-3.77,0h-.72Z"/><path class="cls-1" d="M33.84,17.87c-.09,.46-.14,.94-.3,1.38-.24,.66-.56,1.3-.85,1.94-.06,.13-.16,.16-.29,.16-1.92,0-3.84,0-5.76,0-.16,0-.24-.04-.32-.19-.79-1.48-1.59-2.96-2.39-4.44-.23-.42-.63-.6-.99-.39-.17,.1-.32,.28-.41,.46-.93,1.94-1.85,3.89-2.77,5.83-.04,.09-.09,.17-.15,.28-.14-.22-.26-.41-.38-.6-.53-.83-1.05-1.65-1.58-2.48-.38-.59-1-.59-1.37,.01-.27,.45-.54,.89-.81,1.34-.07,.12-.14,.17-.29,.17-1.67,0-3.35,0-5.02,0-.16,0-.24-.06-.32-.2-2.45-4.03-.6-8.73,3.21-10.48,2.76-1.27,5.34-.79,7.73,.99,.16,.12,.32,.25,.45,.36,.53-.36,1.03-.74,1.58-1.05,4.72-2.69,9.96,.45,10.87,4.96,.06,.27,.1,.54,.15,.82v1.13h0Z"/><path class="cls-1" d="M11.14,22.82h.71c1.26,0,2.52,0,3.77,0,.42,0,.7-.15,.89-.51,.14-.26,.3-.5,.47-.78,.06,.09,.11,.15,.15,.21,.63,.99,1.27,1.98,1.89,2.98,.17,.28,.39,.47,.73,.45,.35-.02,.55-.24,.69-.54,.9-1.91,1.8-3.82,2.71-5.73,.04-.08,.08-.16,.13-.27,.06,.1,.1,.17,.15,.25,.62,1.14,1.24,2.28,1.84,3.43,.19,.36,.45,.52,.86,.52,1.66-.01,3.32,0,4.97,0h.31c-.09,.1-.14,.16-.2,.23-3.1,3.09-6.2,6.17-9.31,9.26-.43,.43-.82,.42-1.25,0-3.11-3.09-6.22-6.19-9.33-9.28-.05-.05-.1-.11-.19-.2h0Z"/></g></svg>