<?xml version="1.0" encoding="UTF-8"?><svg id="Layer_1" xmlns="http://www.w3.org/2000/svg" xmlns:xlink="http://www.w3.org/1999/xlink" viewBox="0 0 42.58 42.58"><defs><style>.cls-1{fill:#31c262;}.cls-2{fill:#f0fff4;stroke:url(#linear-gradient);stroke-miterlimit:10;stroke-width:.75px;}</style><linearGradient id="linear-gradient" x1="0" y1="21.29" x2="42.58" y2="21.29" gradientUnits="userSpaceOnUse"><stop offset="0" stop-color="#20bf55"/><stop offset="1" stop-color="#01baef"/></linearGradient></defs><circle class="cls-2" cx="21.29" cy="21.29" r="20.91"/><g><path class="cls-1" d="M21.89,8.74c.33,.05,.66,.09,.99,.15,1.75,.37,2.81,1.45,3.19,3.18,.33,1.49,.43,2.99,.08,4.49-.38,1.64-1.21,3-2.7,3.85-1.58,.89-3.15,.8-4.64-.22-1.31-.9-2.07-2.19-2.37-3.73-.36-1.81-.28-3.61,.42-5.34,.46-1.13,1.34-1.83,2.52-2.14,.44-.12,.9-.17,1.34-.25h1.17Z"/><path class="cls-1" d="M21.67,33.84c-2.31-.02-4.23-.14-6.1-.64-1.13-.3-2.2-.71-3.13-1.45-.06-.04-.11-.1-.17-.14-.38-.31-.56-.68-.53-1.21,.09-1.31,.06-2.63,.29-3.93,.19-1.05,.5-2.04,1.26-2.84,.52-.55,1.15-.93,1.84-1.22,1.05-.44,2.16-.69,3.27-.89,.06-.01,.16,.02,.21,.07,.8,.74,1.77,.97,2.82,.95,.78-.02,1.52-.2,2.17-.65,.04-.03,.09-.05,.12-.09,.23-.31,.52-.29,.86-.21,1.12,.25,2.24,.51,3.29,1.01,1.44,.69,2.25,1.85,2.59,3.39,.23,1.03,.3,2.08,.34,3.13,.02,.56,.04,1.13,.03,1.69,0,.13-.06,.29-.14,.4-.58,.73-1.37,1.17-2.22,1.51-1.54,.64-3.16,.9-4.81,1.03-.79,.06-1.58,.08-2,.1h0Z"/></g></svg>