<?xml version="1.0" encoding="UTF-8"?><svg id="Layer_1" xmlns="http://www.w3.org/2000/svg" xmlns:xlink="http://www.w3.org/1999/xlink" viewBox="0 0 42.58 42.58"><defs><style>.cls-1{fill:#31c262;}.cls-2{fill:#f0fff4;stroke:url(#linear-gradient);stroke-miterlimit:10;stroke-width:.75px;}</style><linearGradient id="linear-gradient" x1="0" y1="21.29" x2="42.58" y2="21.29" gradientUnits="userSpaceOnUse"><stop offset="0" stop-color="#20bf55"/><stop offset="1" stop-color="#01baef"/></linearGradient></defs><circle class="cls-2" cx="21.29" cy="21.29" r="20.91"/><g><path class="cls-1" d="M33.84,26.14c-.11,.26-.33,.35-.59,.33h-.07c-.28,0-.61,.08-.84-.03-.21-.1-.33-.41-.49-.63-1.31-1.7-3.98-1.49-5.01,.4-.11,.2-.23,.28-.45,.26-.28-.02-.57,0-.86,0v-6.1h.25c1.88,0,3.76,0,5.63,0,.13,0,.28,.03,.4,.08,.54,.23,1.08,.46,1.61,.71,.16,.08,.29,.24,.44,.36v4.61h0Z"/><path class="cls-1" d="M8.74,21.76v-7.39c0-.96,.58-1.55,1.54-1.55h12.69c.94,0,1.54,.58,1.55,1.49,0,2.44,0,4.89,0,7.33,0,.03,0,.06,0,.12H8.74Z"/><path class="cls-1" d="M24.51,22.78v3.7h-.27c-2.85,0-5.7,0-8.55,0-.19,0-.28-.06-.38-.23-.59-1.02-1.48-1.59-2.66-1.59s-2.07,.57-2.65,1.59c-.09,.16-.19,.22-.38,.22-.83,0-.88-.05-.88-.87v-2.83h15.77Z"/><path class="cls-1" d="M30.91,19.4h-5.39v-3.25s.03-.03,.04-.03c.96,0,1.93-.01,2.89,0,.48,0,.87,.25,1.1,.67,.46,.84,.9,1.7,1.36,2.59Z"/><path class="cls-1" d="M10.6,27.71c0-1.13,.91-2.06,2.05-2.06,1.13,0,2.06,.91,2.07,2.04,.01,1.11-.92,2.05-2.05,2.07-1.11,.02-2.06-.92-2.06-2.05Z"/><path class="cls-1" d="M27.41,27.66c.03-1.14,.96-2.04,2.09-2.02s2.04,.96,2.02,2.06c-.02,1.13-.96,2.06-2.07,2.05-1.14-.01-2.07-.96-2.04-2.09Z"/></g></svg>