<svg id="Layer_1" data-name="Layer 1" xmlns="http://www.w3.org/2000/svg" xmlns:xlink="http://www.w3.org/1999/xlink" viewBox="0 0 500 104"><defs><style>.cls-1{fill:none;}.cls-2{fill:#60941a;}.cls-3{fill:#5b98d7;}.cls-4{fill:#f68712;}.cls-5{fill:#737373;}.cls-6{clip-path:url(#clip-path);}.cls-7{fill:#fff;}.cls-8{clip-path:url(#clip-path-2);}.cls-9{clip-path:url(#clip-path-3);}.cls-10{clip-path:url(#clip-path-4);}.cls-11{fill:#2a68bb;}.cls-12{clip-path:url(#clip-path-5);}.cls-13{fill:#51ade5;}.cls-14{fill:#3871c1;}.cls-15{clip-path:url(#clip-path-6);}.cls-16{fill:#f9a72b;}.cls-17{clip-path:url(#clip-path-7);}.cls-18{clip-path:url(#clip-path-8);}.cls-19{fill:#80cc28;}.cls-20{clip-path:url(#clip-path-9);}.cls-21{fill:#40b93c;}</style><clipPath id="clip-path"><rect class="cls-1" x="142.44" y="29.68" width="47.72" height="45"/></clipPath><clipPath id="clip-path-2"><rect class="cls-1" x="141.16" y="29.68" width="49" height="45"/></clipPath><clipPath id="clip-path-3"><rect class="cls-1" x="171.77" y="30.33" width="18.39" height="34.67"/></clipPath><clipPath id="clip-path-4"><rect class="cls-1" x="171.77" y="29.68" width="18.39" height="35.32"/></clipPath><clipPath id="clip-path-5"><rect class="cls-1" x="151.77" y="42.33" width="10.67" height="11.69"/></clipPath><clipPath id="clip-path-6"><rect class="cls-1" x="158.44" y="39.67" width="5.33" height="14.35"/></clipPath><clipPath id="clip-path-7"><rect class="cls-1" x="155.77" y="39.67" width="6.67" height="14.35"/></clipPath><clipPath id="clip-path-8"><rect class="cls-1" x="161.1" y="39.02" width="12" height="15"/></clipPath><clipPath id="clip-path-9"><rect class="cls-1" x="159.77" y="39.02" width="12" height="15"/></clipPath></defs><title>360 newlogo private limited</title><path class="cls-2" d="M201.52,58.23c-.35,0-.74,0-1.19,0a10.87,10.87,0,0,1-1.37-.12,10.55,10.55,0,0,1-1.36-.27,4.47,4.47,0,0,1-1.18-.46,2.67,2.67,0,0,1-.86-.73,1.69,1.69,0,0,1-.31-1,1.17,1.17,0,0,1,.17-.65,1.52,1.52,0,0,1,.43-.48,2.35,2.35,0,0,1,.65-.27,3.25,3.25,0,0,1,.77-.1,1.92,1.92,0,0,1,.87.21,3.47,3.47,0,0,1,.8.48,8.57,8.57,0,0,1,.73.64,7.57,7.57,0,0,0,.77.63,4.22,4.22,0,0,0,.85.5,2.63,2.63,0,0,0,1,.19A3.18,3.18,0,0,0,204,56a5.13,5.13,0,0,0,1.25-1.48,7.81,7.81,0,0,0,.75-2,8.84,8.84,0,0,0,.25-2.06,6.89,6.89,0,0,0-.29-2.11,4.23,4.23,0,0,0-.71-1.41,2.57,2.57,0,0,0-.94-.79,2.06,2.06,0,0,0-1-.28,2.57,2.57,0,0,0-.66.09,4,4,0,0,0-.5.19,2,2,0,0,0-.36.22,1.61,1.61,0,0,1-.29.21,1,1,0,0,1-.25.15,1.39,1.39,0,0,1-.42,0,.59.59,0,0,1-.48-.23.69.69,0,0,1-.16-.39c0-.07.07-.18.21-.34a3.91,3.91,0,0,1,.39-.41c.4-.36.82-.77,1.25-1.21a11.93,11.93,0,0,0,1.19-1.4,7.69,7.69,0,0,0,.89-1.5,3.56,3.56,0,0,0,.36-1.52,2.72,2.72,0,0,0-.23-1.08,3.62,3.62,0,0,0-.6-1,3.08,3.08,0,0,0-.86-.67,2.16,2.16,0,0,0-1-.25,4,4,0,0,0-1.66.34,3.76,3.76,0,0,0-1.23.81,5.55,5.55,0,0,0-.88,1c-.22.36-.42.69-.58,1a.53.53,0,0,1-.21.23,1,1,0,0,1-.33,0l-.21,0a1.12,1.12,0,0,1-.25-.11.58.58,0,0,1-.19-.16.34.34,0,0,1-.08-.23.15.15,0,0,1,0-.06.58.58,0,0,1,.06-.15,1,1,0,0,1,.08-.21,7.51,7.51,0,0,1,1.09-1.83,8.6,8.6,0,0,1,1.5-1.46,6.4,6.4,0,0,1,1.73-1,5.36,5.36,0,0,1,1.83-.33,9.59,9.59,0,0,1,2.37.27,5.52,5.52,0,0,1,1.84.77,3.85,3.85,0,0,1,1.19,1.29,3.6,3.6,0,0,1,.41,1.73,3.42,3.42,0,0,1-.31,1.44,5.93,5.93,0,0,1-.79,1.31,7.64,7.64,0,0,1-1.11,1.17,13.88,13.88,0,0,1-1.29,1,6.55,6.55,0,0,1,2.52.71,5.28,5.28,0,0,1,1.73,1.37,5.23,5.23,0,0,1,1,1.85,7,7,0,0,1,.33,2.13,6.87,6.87,0,0,1-.41,2.35,8.85,8.85,0,0,1-1.06,2,9.46,9.46,0,0,1-1.57,1.66,10,10,0,0,1-1.87,1.25,8.85,8.85,0,0,1-2,.79A7,7,0,0,1,201.52,58.23Z"/><path class="cls-2" d="M212.4,49.35a11.56,11.56,0,0,1,.69-4.1,11.42,11.42,0,0,1,2.11-3.44,19.53,19.53,0,0,1,3.5-3.08,55.09,55.09,0,0,1,4.89-3c.09-.05.25-.13.46-.22l.69-.3.75-.25a2.2,2.2,0,0,1,.66-.12,3.66,3.66,0,0,1,.8.06.26.26,0,0,1,.25.27c0,.12-.15.27-.42.48a8.37,8.37,0,0,1-1,.65l-1.08.64c-.35.21-.61.37-.77.48l-1.32,1c-.53.39-1.07.83-1.62,1.31a14.26,14.26,0,0,0-1.48,1.54,5.08,5.08,0,0,0-.92,1.59,5.74,5.74,0,0,1,.59-.11,4.3,4.3,0,0,1,.77-.06,7.75,7.75,0,0,1,3.16.63,7.16,7.16,0,0,1,2.48,1.66,7.48,7.48,0,0,1,1.61,2.48,8,8,0,0,1,.58,3,8.32,8.32,0,0,1-.58,3.09A7.44,7.44,0,0,1,225.59,56a8,8,0,0,1-2.48,1.67,8.1,8.1,0,0,1-3.14.61,6.84,6.84,0,0,1-2.27-.36,6.71,6.71,0,0,1-1.9-1,7.31,7.31,0,0,1-1.48-1.46,9.2,9.2,0,0,1-1.06-1.83,10.4,10.4,0,0,1-.86-4.25Zm7.77,7.52a2.53,2.53,0,0,0,1.67-.56,4.09,4.09,0,0,0,1.06-1.44,8,8,0,0,0,.57-1.94,13.43,13.43,0,0,0,.16-2.08,17.38,17.38,0,0,0-.18-2.52,7,7,0,0,0-.65-2.17,4.1,4.1,0,0,0-1.27-1.52,3.42,3.42,0,0,0-2-.58,2.38,2.38,0,0,0-1.54.48,3.05,3.05,0,0,0-.92,1.33,7.21,7.21,0,0,0-.46,2,23,23,0,0,0-.12,2.44c0,.46,0,1,.06,1.46a9.29,9.29,0,0,0,.23,1.48,9,9,0,0,0,.43,1.39,5.7,5.7,0,0,0,.71,1.17,3.22,3.22,0,0,0,1,.79A2.75,2.75,0,0,0,220.17,56.87Z"/><path class="cls-2" d="M237.22,58.23a6.5,6.5,0,0,1-3.35-.86A7.23,7.23,0,0,1,231.43,55,12.2,12.2,0,0,1,230,51.27a21.06,21.06,0,0,1-.5-4.73,18.55,18.55,0,0,1,.21-2.77,17,17,0,0,1,.67-2.73,13.17,13.17,0,0,1,1.08-2.44,9.61,9.61,0,0,1,1.52-2,6.78,6.78,0,0,1,1.94-1.33,5.33,5.33,0,0,1,2.33-.5,5.5,5.5,0,0,1,2.32.48,6.06,6.06,0,0,1,1.89,1.33,9.45,9.45,0,0,1,1.46,2,13.07,13.07,0,0,1,1,2.44,17,17,0,0,1,.63,2.73,20.15,20.15,0,0,1,.21,2.79,22.34,22.34,0,0,1-.48,4.73A11.6,11.6,0,0,1,242.87,55a6.9,6.9,0,0,1-2.35,2.39A6.24,6.24,0,0,1,237.22,58.23Zm-3.81-11.67c0,.86,0,1.72,0,2.56s.09,1.66.19,2.44a18.88,18.88,0,0,0,.42,2.14,6.36,6.36,0,0,0,.69,1.71,3.55,3.55,0,0,0,1,1.13,2.57,2.57,0,0,0,1.43.39,2.44,2.44,0,0,0,1.44-.41,3.24,3.24,0,0,0,1-1.13,7.11,7.11,0,0,0,.63-1.73,18.07,18.07,0,0,0,.35-2.16c.08-.78.13-1.59.15-2.42s0-1.7,0-2.56c0-.7,0-1.44-.06-2.23s-.12-1.59-.21-2.36a19.19,19.19,0,0,0-.38-2.23,8,8,0,0,0-.66-1.85,4.1,4.1,0,0,0-1-1.29,1.93,1.93,0,0,0-1.31-.5,2.27,2.27,0,0,0-1.46.5,4,4,0,0,0-1,1.29,7.83,7.83,0,0,0-.69,1.9,16.64,16.64,0,0,0-.42,2.23c-.1.78-.16,1.56-.19,2.35S233.41,45.85,233.41,46.56Z"/><path class="cls-3" d="M252.8,35.62c0-1.36.75-2,2.27-2s2.27.68,2.27,2a2,2,0,0,1-.56,1.5,2.36,2.36,0,0,1-1.71.54C253.55,37.66,252.8,37,252.8,35.62Zm4.35,19.23H253V39.56h4.17Z"/><path class="cls-4" d="M270.54,54.85H267V47.2a3.89,3.89,0,0,0-.48-2.12,1.71,1.71,0,0,0-1.5-.71,2.16,2.16,0,0,0-2,1,6.64,6.64,0,0,0-.61,3.31v6.17h-3.58V41.75h2.73l.48,1.68h.21A3.41,3.41,0,0,1,263.75,42,4.8,4.8,0,0,1,266,41.5c2,0,3.28.64,4,1.93h.31A3.41,3.41,0,0,1,271.87,42a5.1,5.1,0,0,1,2.34-.52,4.58,4.58,0,0,1,3.35,1.14,5.06,5.06,0,0,1,1.15,3.67v8.54h-3.59V47.2a3.8,3.8,0,0,0-.48-2.12,1.67,1.67,0,0,0-1.48-.71,2.28,2.28,0,0,0-2,.94,5.31,5.31,0,0,0-.64,3Z"/><path class="cls-5" d="M293.32,54.72h-3.38V47.49a3.61,3.61,0,0,0-.45-2,1.55,1.55,0,0,0-1.4-.67,2.06,2.06,0,0,0-1.9,1,6.19,6.19,0,0,0-.58,3.12v5.82h-3.37V42.34h2.58l.46,1.58h.19a3.47,3.47,0,0,1,1.43-1.33,4.66,4.66,0,0,1,2.15-.48c1.86,0,3.11.61,3.77,1.81h.29a3.44,3.44,0,0,1,1.46-1.33,5,5,0,0,1,2.21-.48,4.3,4.3,0,0,1,3.16,1.09A4.68,4.68,0,0,1,301,46.65v8.07h-3.38V47.49a3.52,3.52,0,0,0-.46-2,1.58,1.58,0,0,0-1.41-.67,2.12,2.12,0,0,0-1.86.9,5,5,0,0,0-.6,2.79Z"/><path class="cls-5" d="M309.61,44.51a2.12,2.12,0,0,0-1.69.69,3.12,3.12,0,0,0-.69,1.93H312a2.83,2.83,0,0,0-.64-1.93A2.2,2.2,0,0,0,309.61,44.51ZM310.09,55a6.43,6.43,0,0,1-4.69-1.65,6.34,6.34,0,0,1-1.67-4.69,6.8,6.8,0,0,1,1.55-4.79,5.57,5.57,0,0,1,4.31-1.71,5.42,5.42,0,0,1,4.08,1.5,5.66,5.66,0,0,1,1.46,4.13v1.62h-8a3.28,3.28,0,0,0,.85,2.25,3,3,0,0,0,2.23.81,9.73,9.73,0,0,0,2.13-.22,10.71,10.71,0,0,0,2.08-.75v2.62a8.28,8.28,0,0,1-1.91.65A11.29,11.29,0,0,1,310.09,55Z"/><path class="cls-5" d="M324.79,42.11a5.11,5.11,0,0,1,1.12.11l-.25,3.16a4.24,4.24,0,0,0-3.52.71,3,3,0,0,0-.9,2.33v6.3h-3.37V42.34h2.56l.5,2.08h.17a4.32,4.32,0,0,1,1.54-1.66A3.8,3.8,0,0,1,324.79,42.11Z"/><path class="cls-5" d="M336.78,51.05a3.42,3.42,0,0,1-1.33,2.9,6.51,6.51,0,0,1-3.94,1,12.57,12.57,0,0,1-2.31-.19,8.9,8.9,0,0,1-1.77-.54v-2.8a11.21,11.21,0,0,0,2.1.75,8.67,8.67,0,0,0,2.09.3c1.21,0,1.83-.36,1.83-1.07a.84.84,0,0,0-.25-.64,3,3,0,0,0-.83-.56c-.39-.21-.92-.45-1.59-.73a9.7,9.7,0,0,1-2.1-1.11,3.22,3.22,0,0,1-1-1.16,4,4,0,0,1-.29-1.63A2.94,2.94,0,0,1,328.68,43a6.27,6.27,0,0,1,3.62-.9,10.3,10.3,0,0,1,4.36,1l-1,2.44a15.55,15.55,0,0,0-1.73-.67,5.84,5.84,0,0,0-1.65-.25q-1.5,0-1.5.81a1,1,0,0,0,.48.8,17.65,17.65,0,0,0,2.1,1,9.68,9.68,0,0,1,2.13,1.1,3,3,0,0,1,1,1.17A3.65,3.65,0,0,1,336.78,51.05Z"/><path class="cls-5" d="M344.54,44.51a2.11,2.11,0,0,0-1.68.69,3.07,3.07,0,0,0-.69,1.93h4.73a2.84,2.84,0,0,0-.65-1.93A2.19,2.19,0,0,0,344.54,44.51ZM345,55a6.39,6.39,0,0,1-4.68-1.65,6.3,6.3,0,0,1-1.67-4.69,6.85,6.85,0,0,1,1.54-4.79,5.58,5.58,0,0,1,4.31-1.71,5.46,5.46,0,0,1,4.09,1.5,5.66,5.66,0,0,1,1.46,4.13v1.62h-8a3.28,3.28,0,0,0,.85,2.25,3,3,0,0,0,2.23.81,9.58,9.58,0,0,0,2.12-.22,11,11,0,0,0,2.09-.75v2.62a8.2,8.2,0,0,1-1.92.65A11.29,11.29,0,0,1,345,55Z"/><path d="M349.56,33.58h-1.32v-5.1h-1.68v-1.1h4.68v1.1h-1.68Z"/><path d="M354.84,33.58l-1.5-4.87h0c.05,1,.08,1.67.08,2v2.87h-1.19v-6.2H354l1.48,4.75h0l1.57-4.75h1.79v6.2h-1.23V30.17q0-.27.06-1.44h0L356,33.58Z"/><path d="M201.21,64.24a5.68,5.68,0,0,1,3.21.92l-.77,1.6a6.55,6.55,0,0,0-1.38-.6,3.82,3.82,0,0,0-1.23-.25c-.59,0-.89.2-.89.6a.68.68,0,0,0,.44.61,5.6,5.6,0,0,0,1.08.39,12.24,12.24,0,0,1,1.25.42,2.37,2.37,0,0,1,1.08.77,2,2,0,0,1,.44,1.33,2.13,2.13,0,0,1-.92,1.84,4,4,0,0,1-2.33.64,6.35,6.35,0,0,1-2-.33,5.58,5.58,0,0,1-1.71-1l.81-1.58a5.26,5.26,0,0,0,1.44.87,3.91,3.91,0,0,0,1.48.34,1.49,1.49,0,0,0,.77-.17.61.61,0,0,0,.29-.54.62.62,0,0,0-.33-.54,2,2,0,0,0-.79-.34c-.31-.08-.65-.19-1-.31s-.71-.26-1-.4a2,2,0,0,1-.82-.7,2.27,2.27,0,0,1,.57-2.94A3.85,3.85,0,0,1,201.21,64.24Z"/><path d="M213.53,64.26a4.72,4.72,0,0,1,3.27,1.38l-1.19,1.41a3.29,3.29,0,0,0-1-.77,2.3,2.3,0,0,0-1.08-.29,2.12,2.12,0,0,0-1.61.69,2.31,2.31,0,0,0-.64,1.67,2.36,2.36,0,0,0,.64,1.7,2.12,2.12,0,0,0,1.61.69,2.47,2.47,0,0,0,1-.25,3.71,3.71,0,0,0,1-.71l1.21,1.27a5,5,0,0,1-1.56,1.09,4.5,4.5,0,0,1-1.8.39,4.23,4.23,0,0,1-3.06-1.18,4,4,0,0,1-1.21-3,3.86,3.86,0,0,1,1.23-2.92A4.36,4.36,0,0,1,213.53,64.26Z"/><path d="M227.29,71h-3.54l-.58,1.5H221l3.5-8.1h2.13l3.42,8.1h-2.21Zm-.58-1.56-1.17-3-1.18,3Z"/><path d="M237.07,70.72h3.44v1.73H235v-8.1h2.06Z"/><path d="M247.72,72.45h-2.06v-8.1h2.06Z"/><path d="M261,72.45h-1.81l-3.73-5v5h-1.94v-8.1h1.81l3.75,5v-5H261Z"/><path d="M272.16,68.32H274v3.17a6.47,6.47,0,0,1-3.38,1,4.31,4.31,0,0,1-3.1-1.18,4,4,0,0,1-1.23-3,3.85,3.85,0,0,1,1.27-2.94,4.57,4.57,0,0,1,3.21-1.19,5.2,5.2,0,0,1,1.79.34,4.77,4.77,0,0,1,1.52.87l-1.16,1.42a3.41,3.41,0,0,0-1-.65A2.81,2.81,0,0,0,270.7,66a2.26,2.26,0,0,0-1.67.69,2.34,2.34,0,0,0-.66,1.71,2.43,2.43,0,0,0,.66,1.75,2.31,2.31,0,0,0,1.71.68,3.21,3.21,0,0,0,1.42-.39Z"/><path d="M290.87,72.45h-2.13l-3.16-8.1h2.2l2.09,6,2.06-6h2.13Z"/><path d="M301.09,72.45H299v-8.1h2.07Z"/><path d="M310,64.24a5.64,5.64,0,0,1,3.2.92l-.77,1.6a6.7,6.7,0,0,0-1.37-.6,3.87,3.87,0,0,0-1.23-.25q-.9,0-.9.6a.69.69,0,0,0,.44.61,5.86,5.86,0,0,0,1.08.39,11.47,11.47,0,0,1,1.25.42,2.4,2.4,0,0,1,1.09.77A2,2,0,0,1,313.2,70a2.12,2.12,0,0,1-.91,1.84,4,4,0,0,1-2.34.64,6.4,6.4,0,0,1-2-.33,5.53,5.53,0,0,1-1.7-1l.81-1.58a5.12,5.12,0,0,0,1.44.87,3.87,3.87,0,0,0,1.48.34,1.52,1.52,0,0,0,.77-.17.61.61,0,0,0,.29-.54.63.63,0,0,0-.34-.54,1.91,1.91,0,0,0-.79-.34c-.3-.08-.64-.19-1-.31s-.7-.26-1-.4a2,2,0,0,1-.81-.7,2,2,0,0,1-.31-1.15,2.14,2.14,0,0,1,.87-1.79A3.86,3.86,0,0,1,310,64.24Z"/><path d="M320.56,72.45H318.5v-8.1h2.06Z"/><path d="M330.2,64.26a4.39,4.39,0,0,1,3.13,1.19,3.87,3.87,0,0,1,1.25,2.94,3.94,3.94,0,0,1-1.25,3,4.42,4.42,0,0,1-3.15,1.18,4.34,4.34,0,0,1-3.12-1.18,3.91,3.91,0,0,1-1.25-3,3.83,3.83,0,0,1,1.25-2.94A4.38,4.38,0,0,1,330.2,64.26Zm0,1.73a2.15,2.15,0,0,0-1.62.69,2.35,2.35,0,0,0-.67,1.71,2.41,2.41,0,0,0,.67,1.73,2.19,2.19,0,0,0,1.62.7,2.08,2.08,0,0,0,1.59-.7,2.52,2.52,0,0,0,.64-1.73,2.45,2.45,0,0,0-.64-1.71A2.11,2.11,0,0,0,330.22,66Z"/><path d="M347.32,72.45h-1.81l-3.73-5v5h-1.94v-8.1h1.81l3.75,5v-5h1.92Z"/><g class="cls-6"><path class="cls-7" d="M187.64,32.58c-2.1-2.31-5.75-2.9-10.55-1.69l-.44-.92-3.47,3.73h5.25l-.62-1.3c4-.94,7-.49,8.63,1.28,1.94,2.13,1.76,6.2-.49,11.15-2.38,5.25-6.75,10.93-12.3,16s-11.6,8.9-17,10.78c-5.14,1.79-9.2,1.59-11.14-.54C143,68.32,143.94,62.7,148,56l-1.39-.85c-4.5,7.33-5.39,13.69-2.38,17a8,8,0,0,0,6.12,2.3,21.16,21.16,0,0,0,6.77-1.31c5.64-2,11.89-5.91,17.61-11.12S185,51,187.44,45.51c2.57-5.66,2.64-10.25.2-12.93"/></g><g class="cls-8"><path class="cls-4" d="M187.64,32.58l.17-.15a6.77,6.77,0,0,0-2.67-1.79,10.05,10.05,0,0,0-3.59-.59,18.31,18.31,0,0,0-4.52.62l.06.22.21-.1-.44-.91a.26.26,0,0,0-.17-.14.25.25,0,0,0-.21.08L173,33.54a.24.24,0,0,0-.05.25.23.23,0,0,0,.21.14h5.25a.23.23,0,0,0,.21-.33L178,32.3l-.21.1.05.22a15.75,15.75,0,0,1,3.65-.47,8.49,8.49,0,0,1,2.8.43,4.68,4.68,0,0,1,2,1.26,4.46,4.46,0,0,1,.95,1.68,7.08,7.08,0,0,1,.33,2.24,17.59,17.59,0,0,1-1.8,7C183.39,50,179,55.61,173.5,60.66s-11.57,8.86-17,10.73a19.1,19.1,0,0,1-6.13,1.19,8.5,8.5,0,0,1-2.8-.42,4.82,4.82,0,0,1-2-1.26,4.67,4.67,0,0,1-1-1.71,7,7,0,0,1-.33-2.23c0-2.85,1.32-6.62,3.9-10.83a.25.25,0,0,0,0-.17.23.23,0,0,0-.1-.15l-1.4-.85a.24.24,0,0,0-.32.08c-2.75,4.49-4.16,8.62-4.17,11.95a9.24,9.24,0,0,0,.45,3,6.53,6.53,0,0,0,4.06,4.14,10.1,10.1,0,0,0,3.6.6,21.21,21.21,0,0,0,6.84-1.32c5.68-2,12-5.94,17.69-11.17s10.25-11.11,12.74-16.6a19.45,19.45,0,0,0,2-7.86,9,9,0,0,0-.46-3,6.5,6.5,0,0,0-1.38-2.36l-.17.15-.17.15a6.39,6.39,0,0,1,1.29,2.2,8.59,8.59,0,0,1,.43,2.81,19.14,19.14,0,0,1-2,7.68c-2.45,5.4-6.94,11.25-12.63,16.44S162.67,71,157.07,72.93a20.43,20.43,0,0,1-6.69,1.29,9.91,9.91,0,0,1-3.45-.55,6.4,6.4,0,0,1-2.5-1.67,6.12,6.12,0,0,1-1.27-2.19,8.88,8.88,0,0,1-.43-2.82c0-3.2,1.39-7.27,4.11-11.71l-.2-.12-.12.19,1.39.86L148,56l-.19-.12c-2.61,4.26-4,8.09-4,11.07a7.73,7.73,0,0,0,.34,2.38,5.27,5.27,0,0,0,1.08,1.87,5.18,5.18,0,0,0,2.14,1.38,9,9,0,0,0,3,.45,19.35,19.35,0,0,0,6.28-1.22c5.48-1.9,11.55-5.74,17.13-10.83s10-10.78,12.35-16.06A17.84,17.84,0,0,0,188,37.76a7.73,7.73,0,0,0-.35-2.38,4.85,4.85,0,0,0-1.06-1.85,5,5,0,0,0-2.14-1.38,8.66,8.66,0,0,0-3-.46,16.47,16.47,0,0,0-3.75.48.21.21,0,0,0-.16.13.21.21,0,0,0,0,.19l.46,1h-4.35l2.88-3.09.29.6a.23.23,0,0,0,.26.13,18.05,18.05,0,0,1,4.41-.6,9.79,9.79,0,0,1,3.43.56,6.35,6.35,0,0,1,2.49,1.66l.17-.15"/></g><g class="cls-9"><path class="cls-2" d="M172,64.14c0-.52.05-1,.05-1.57.6-.51,1.2-1,1.79-1.58,5.57-5.08,10-10.78,12.35-16.06A17.84,17.84,0,0,0,188,37.76a7.73,7.73,0,0,0-.35-2.38,4.85,4.85,0,0,0-1.06-1.85,5,5,0,0,0-2.14-1.38,8.66,8.66,0,0,0-3-.46,16.47,16.47,0,0,0-3.75.48.21.21,0,0,0-.16.13.21.21,0,0,0,0,.19l.46,1h-4.35l2.88-3.09.29.6a.23.23,0,0,0,.21.14h0a18.05,18.05,0,0,1,4.41-.6,9.79,9.79,0,0,1,3.43.56,6.35,6.35,0,0,1,2.49,1.66l.11-.09-.11.09a6.39,6.39,0,0,1,1.29,2.2,8.59,8.59,0,0,1,.43,2.81,19.14,19.14,0,0,1-2,7.68c-2.45,5.4-6.94,11.25-12.63,16.44-.87.79-1.74,1.55-2.63,2.28"/></g><g class="cls-10"><path class="cls-11" d="M172,64.59c0-.15,0-.3,0-.45.89-.73,1.76-1.49,2.63-2.28,5.69-5.19,10.18-11,12.63-16.44a19.14,19.14,0,0,0,2-7.68,8.59,8.59,0,0,0-.43-2.81,6.39,6.39,0,0,0-1.29-2.2l.11-.09.06.07c2.44,2.68,2.37,7.27-.2,12.93-2.47,5.44-7,11.31-12.68,16.53-.93.84-1.87,1.65-2.81,2.42m.07-2V62.4c.55-.47,1.1-.95,1.63-1.45,5.55-5.06,9.92-10.74,12.3-16,2.25-5,2.43-9,.49-11.16a6.47,6.47,0,0,0-4.93-1.76,16.13,16.13,0,0,0-3.7.48l.62,1.3h-5.25l3.47-3.73.44.92a18.35,18.35,0,0,1,4.46-.61,8,8,0,0,1,6,2.23l-.11.09A6.35,6.35,0,0,0,185,31.07a9.79,9.79,0,0,0-3.43-.56,18.05,18.05,0,0,0-4.41.6h0a.23.23,0,0,1-.21-.14l-.29-.6-2.88,3.09h4.35l-.46-1a.21.21,0,0,1,0-.19.21.21,0,0,1,.16-.13,16.47,16.47,0,0,1,3.75-.48,8.66,8.66,0,0,1,3,.46,5,5,0,0,1,2.14,1.38,4.85,4.85,0,0,1,1.06,1.85,7.73,7.73,0,0,1,.35,2.38,17.84,17.84,0,0,1-1.85,7.17c-2.39,5.28-6.78,11-12.35,16.06-.59.55-1.19,1.07-1.79,1.58"/></g><g class="cls-12"><path class="cls-13" d="M152.34,43.45s10.84.64,9.12,10.57l-9.12-10.57"/><path class="cls-14" d="M152.34,43.45S151,53.83,161.46,54l-9.12-10.57"/></g><g class="cls-15"><path class="cls-16" d="M158.64,40.55s9.23,5.51,2.82,13.47l-2.82-13.47"/></g><g class="cls-17"><path class="cls-4" d="M158.64,40.55s-6.29,8.53,2.82,13.47l-2.82-13.47"/></g><g class="cls-18"><path class="cls-19" d="M171.72,39s3.29,13.3-10.26,15l10.26-15"/></g><g class="cls-20"><path class="cls-21" d="M171.72,39s-14,2.33-10.26,15l10.26-15"/></g></svg>