<?xml version="1.0" encoding="UTF-8"?><svg id="Layer_1" xmlns="http://www.w3.org/2000/svg" xmlns:xlink="http://www.w3.org/1999/xlink" viewBox="0 0 42.58 42.58"><defs><style>.cls-1{fill:#31c262;}.cls-2{fill:#f0fff4;stroke:url(#linear-gradient);stroke-miterlimit:10;stroke-width:.75px;}</style><linearGradient id="linear-gradient" x1="0" y1="21.29" x2="42.58" y2="21.29" gradientUnits="userSpaceOnUse"><stop offset="0" stop-color="#20bf55"/><stop offset="1" stop-color="#01baef"/></linearGradient></defs><circle class="cls-2" cx="21.29" cy="21.29" r="20.91"/><g><path class="cls-1" d="M33.84,22.17v7.79c-.1,.26-.17,.53-.31,.76-.44,.72-1.1,1.02-1.94,1.02-6.87,0-13.73,0-20.6,0-.08,0-.16,0-.25,0-1.1-.04-1.99-.93-2-2.02-.01-2.45,0-4.9,0-7.35,0-.22,.08-.4,.28-.5s.39-.08,.57,.06c.42,.31,.89,.42,1.4,.42,2.63,0,5.26,0,7.89,0h.3v1.45c0,.45,.2,.64,.64,.64h2.82c.57,0,.73-.16,.73-.73v-1.37h8.23c.46,0,.89-.09,1.27-.35,.44-.29,.67-.24,.95,.19h0Z"/><path class="cls-1" d="M33.84,15.75v3.72s-.03,.06-.03,.09c-.32,1.17-1.04,1.73-2.25,1.73h-8.17c0-.18,0-.32,0-.47-.01-.38-.21-.57-.59-.57-1,0-2.01,0-3.01,0-.39,0-.58,.2-.59,.59,0,.14,0,.29,0,.45h-.2c-2.71,0-5.42,0-8.13,0-1.21,0-2.11-.92-2.12-2.13,0-.97,.03-1.94,0-2.91-.05-1.29,.95-2.31,2.26-2.27,1.58,.04,3.17,0,4.75,0h.31v-.94c0-1.31,.89-2.2,2.2-2.2,2.02,0,4.05,0,6.07,0,.16,0,.33,0,.49,.04,1.02,.2,1.68,1.03,1.7,2.1,0,.32,0,.65,0,1h.32c1.66,0,3.33,0,5,0,.89,0,1.65,.62,1.9,1.47,.03,.1,.06,.2,.09,.3h0Zm-15.67-1.8h6.25v-1.02h-6.25v1.02Z"/></g></svg>