<?xml version="1.0" encoding="UTF-8"?><svg id="Layer_1" xmlns="http://www.w3.org/2000/svg" xmlns:xlink="http://www.w3.org/1999/xlink" viewBox="0 0 42.58 42.58"><defs><style>.cls-1{fill:#31c262;}.cls-2{fill:#f0fff4;stroke:url(#linear-gradient);stroke-miterlimit:10;stroke-width:.75px;}</style><linearGradient id="linear-gradient" x1="0" y1="21.29" x2="42.58" y2="21.29" gradientUnits="userSpaceOnUse"><stop offset="0" stop-color="#20bf55"/><stop offset="1" stop-color="#01baef"/></linearGradient></defs><circle class="cls-2" cx="21.29" cy="21.29" r="20.91"/><g><path class="cls-1" d="M21.29,34.28c-3.37,0-6.75,0-10.12,0-.51,0-.64-.13-.64-.65,0-3.76,0-7.51,0-11.27,0-.51,.13-.64,.65-.64,6.75,0,13.5,0,20.24,0,.51,0,.65,.13,.65,.64,0,3.76,0,7.51,0,11.27,0,.51-.13,.64-.65,.65-3.37,0-6.75,0-10.12,0Zm-7.17-1.81h14.33c.13-1.08,.62-1.58,1.79-1.81v-5.34c-1.1-.15-1.61-.65-1.8-1.8H14.13c-.12,1.09-.73,1.68-1.79,1.8v5.35c1.08,.12,1.66,.71,1.79,1.79Z"/><path class="cls-1" d="M28.91,18.11h-1.78c0-.64-.02-1.28,.01-1.91,.01-.19,.2-.36,.3-.55,.04-.07,.12-.13,.12-.2,0-.83,0-1.66,0-2.53-.16,.06-.3,.11-.44,.16-1.84,.74-3.67,1.47-5.51,2.21-.23,.09-.43,.09-.67,0-2.62-1.06-5.25-2.1-7.87-3.16-.13-.05-.22-.19-.32-.29,.1-.1,.19-.25,.31-.3,2.65-1.07,5.3-2.12,7.95-3.19,.19-.08,.35-.07,.53,0,2.63,1.06,5.27,2.11,7.9,3.16,.05,.02,.12,.03,.15,.07,.08,.08,.18,.18,.19,.27,0,.08-.1,.2-.19,.24-.3,.14-.62,.26-.93,.38-.15,.06-.22,.13-.21,.3,0,.87,0,1.74,.01,2.61,0,.09,.08,.19,.12,.28,.1,.2,.29,.4,.3,.61,.04,.6,.01,1.21,.01,1.84Z"/><path class="cls-1" d="M25.78,15.09c0,1.1,0,2.17,0,3.23,0,.08-.09,.2-.17,.25-2.63,1.66-5.33,1.79-8.1,.33-.53-.28-.75-.59-.71-1.2,.06-.85,.02-1.72,.02-2.61,.66,.26,1.29,.51,1.92,.76,.79,.31,1.57,.64,2.37,.94,.12,.05,.29,.05,.42,0,1.3-.51,2.6-1.03,3.9-1.55,.11-.04,.22-.09,.38-.15Z"/><path class="cls-1" d="M23.98,27.99c0,1.48-1.2,2.7-2.68,2.7-1.48,0-2.7-1.2-2.7-2.68,0-1.48,1.2-2.7,2.68-2.7,1.48,0,2.7,1.2,2.7,2.68Z"/></g></svg>