<?xml version="1.0" encoding="UTF-8"?><svg id="Layer_1" xmlns="http://www.w3.org/2000/svg" xmlns:xlink="http://www.w3.org/1999/xlink" viewBox="0 0 42.58 42.58"><defs><style>.cls-1{fill:#31c262;}.cls-2{fill:#f0fff4;stroke:url(#linear-gradient);stroke-miterlimit:10;stroke-width:.75px;}</style><linearGradient id="linear-gradient" x1="0" y1="21.29" x2="42.58" y2="21.29" gradientUnits="userSpaceOnUse"><stop offset="0" stop-color="#20bf55"/><stop offset="1" stop-color="#01baef"/></linearGradient></defs><circle class="cls-2" cx="21.29" cy="21.29" r="20.91"/><path class="cls-1" d="M21.09,8.74h.34c.37,.11,.55,.4,.71,.74,1.06,2.29,2.14,4.57,3.21,6.85,.06,.13,.13,.23,.29,.25,.89,.13,1.78,.26,2.66,.4,1.61,.25,3.23,.49,4.84,.74,.42,.06,.7,.39,.69,.79,0,.26-.14,.46-.32,.64-1.79,1.83-3.57,3.66-5.36,5.49-.08,.08-.16,.14-.14,.29,.33,2.01,.66,4.01,.99,6.02,.1,.63,.21,1.25,.31,1.89,.08,.54-.19,.94-.68,1-.21,.03-.4-.06-.58-.16-2.16-1.19-4.32-2.38-6.47-3.59-.22-.12-.37-.13-.59,0-2.16,1.2-4.33,2.4-6.49,3.59-.32,.18-.63,.23-.94,.02-.33-.23-.37-.55-.31-.91,.42-2.59,.84-5.17,1.27-7.76,.03-.17,0-.27-.12-.38-1.24-1.27-2.48-2.53-3.71-3.81-.66-.69-1.37-1.33-1.96-2.08v-.49c.17-.25,.34-.49,.68-.54,2.48-.37,4.95-.76,7.43-1.13,.2-.03,.31-.1,.4-.29,1.05-2.25,2.11-4.49,3.15-6.74,.16-.35,.32-.67,.7-.82h0Z"/></svg>